%TF.GenerationSoftware,KiCad,Pcbnew,7.0.9*%
%TF.CreationDate,2023-12-25T23:00:34+05:45*%
%TF.ProjectId,Attiny85_USB_panel,41747469-6e79-4383-955f-5553425f7061,rev?*%
%TF.SameCoordinates,Original*%
%TF.FileFunction,Legend,Top*%
%TF.FilePolarity,Positive*%
%FSLAX46Y46*%
G04 Gerber Fmt 4.6, Leading zero omitted, Abs format (unit mm)*
G04 Created by KiCad (PCBNEW 7.0.9) date 2023-12-25 23:00:34*
%MOMM*%
%LPD*%
G01*
G04 APERTURE LIST*
%ADD10C,0.150000*%
%ADD11C,0.100000*%
%ADD12C,0.120000*%
G04 APERTURE END LIST*
D10*
X98895933Y-67484419D02*
X98562600Y-67008228D01*
X98324505Y-67484419D02*
X98324505Y-66484419D01*
X98324505Y-66484419D02*
X98705457Y-66484419D01*
X98705457Y-66484419D02*
X98800695Y-66532038D01*
X98800695Y-66532038D02*
X98848314Y-66579657D01*
X98848314Y-66579657D02*
X98895933Y-66674895D01*
X98895933Y-66674895D02*
X98895933Y-66817752D01*
X98895933Y-66817752D02*
X98848314Y-66912990D01*
X98848314Y-66912990D02*
X98800695Y-66960609D01*
X98800695Y-66960609D02*
X98705457Y-67008228D01*
X98705457Y-67008228D02*
X98324505Y-67008228D01*
X99848314Y-67484419D02*
X99276886Y-67484419D01*
X99562600Y-67484419D02*
X99562600Y-66484419D01*
X99562600Y-66484419D02*
X99467362Y-66627276D01*
X99467362Y-66627276D02*
X99372124Y-66722514D01*
X99372124Y-66722514D02*
X99276886Y-66770133D01*
X110236095Y-47838819D02*
X110236095Y-48648342D01*
X110236095Y-48648342D02*
X110283714Y-48743580D01*
X110283714Y-48743580D02*
X110331333Y-48791200D01*
X110331333Y-48791200D02*
X110426571Y-48838819D01*
X110426571Y-48838819D02*
X110617047Y-48838819D01*
X110617047Y-48838819D02*
X110712285Y-48791200D01*
X110712285Y-48791200D02*
X110759904Y-48743580D01*
X110759904Y-48743580D02*
X110807523Y-48648342D01*
X110807523Y-48648342D02*
X110807523Y-47838819D01*
X111188476Y-47838819D02*
X111807523Y-47838819D01*
X111807523Y-47838819D02*
X111474190Y-48219771D01*
X111474190Y-48219771D02*
X111617047Y-48219771D01*
X111617047Y-48219771D02*
X111712285Y-48267390D01*
X111712285Y-48267390D02*
X111759904Y-48315009D01*
X111759904Y-48315009D02*
X111807523Y-48410247D01*
X111807523Y-48410247D02*
X111807523Y-48648342D01*
X111807523Y-48648342D02*
X111759904Y-48743580D01*
X111759904Y-48743580D02*
X111712285Y-48791200D01*
X111712285Y-48791200D02*
X111617047Y-48838819D01*
X111617047Y-48838819D02*
X111331333Y-48838819D01*
X111331333Y-48838819D02*
X111236095Y-48791200D01*
X111236095Y-48791200D02*
X111188476Y-48743580D01*
X98895933Y-65452419D02*
X98562600Y-64976228D01*
X98324505Y-65452419D02*
X98324505Y-64452419D01*
X98324505Y-64452419D02*
X98705457Y-64452419D01*
X98705457Y-64452419D02*
X98800695Y-64500038D01*
X98800695Y-64500038D02*
X98848314Y-64547657D01*
X98848314Y-64547657D02*
X98895933Y-64642895D01*
X98895933Y-64642895D02*
X98895933Y-64785752D01*
X98895933Y-64785752D02*
X98848314Y-64880990D01*
X98848314Y-64880990D02*
X98800695Y-64928609D01*
X98800695Y-64928609D02*
X98705457Y-64976228D01*
X98705457Y-64976228D02*
X98324505Y-64976228D01*
X99753076Y-64785752D02*
X99753076Y-65452419D01*
X99514981Y-64404800D02*
X99276886Y-65119085D01*
X99276886Y-65119085D02*
X99895933Y-65119085D01*
X97520666Y-47708819D02*
X97520666Y-48423104D01*
X97520666Y-48423104D02*
X97473047Y-48565961D01*
X97473047Y-48565961D02*
X97377809Y-48661200D01*
X97377809Y-48661200D02*
X97234952Y-48708819D01*
X97234952Y-48708819D02*
X97139714Y-48708819D01*
X98520666Y-48708819D02*
X97949238Y-48708819D01*
X98234952Y-48708819D02*
X98234952Y-47708819D01*
X98234952Y-47708819D02*
X98139714Y-47851676D01*
X98139714Y-47851676D02*
X98044476Y-47946914D01*
X98044476Y-47946914D02*
X97949238Y-47994533D01*
X87450705Y-90415019D02*
X87450705Y-89415019D01*
X87450705Y-89415019D02*
X87688800Y-89415019D01*
X87688800Y-89415019D02*
X87831657Y-89462638D01*
X87831657Y-89462638D02*
X87926895Y-89557876D01*
X87926895Y-89557876D02*
X87974514Y-89653114D01*
X87974514Y-89653114D02*
X88022133Y-89843590D01*
X88022133Y-89843590D02*
X88022133Y-89986447D01*
X88022133Y-89986447D02*
X87974514Y-90176923D01*
X87974514Y-90176923D02*
X87926895Y-90272161D01*
X87926895Y-90272161D02*
X87831657Y-90367400D01*
X87831657Y-90367400D02*
X87688800Y-90415019D01*
X87688800Y-90415019D02*
X87450705Y-90415019D01*
X88974514Y-90415019D02*
X88403086Y-90415019D01*
X88688800Y-90415019D02*
X88688800Y-89415019D01*
X88688800Y-89415019D02*
X88593562Y-89557876D01*
X88593562Y-89557876D02*
X88498324Y-89653114D01*
X88498324Y-89653114D02*
X88403086Y-89700733D01*
X113422133Y-94637019D02*
X113088800Y-94160828D01*
X112850705Y-94637019D02*
X112850705Y-93637019D01*
X112850705Y-93637019D02*
X113231657Y-93637019D01*
X113231657Y-93637019D02*
X113326895Y-93684638D01*
X113326895Y-93684638D02*
X113374514Y-93732257D01*
X113374514Y-93732257D02*
X113422133Y-93827495D01*
X113422133Y-93827495D02*
X113422133Y-93970352D01*
X113422133Y-93970352D02*
X113374514Y-94065590D01*
X113374514Y-94065590D02*
X113326895Y-94113209D01*
X113326895Y-94113209D02*
X113231657Y-94160828D01*
X113231657Y-94160828D02*
X112850705Y-94160828D01*
X113755467Y-93637019D02*
X114374514Y-93637019D01*
X114374514Y-93637019D02*
X114041181Y-94017971D01*
X114041181Y-94017971D02*
X114184038Y-94017971D01*
X114184038Y-94017971D02*
X114279276Y-94065590D01*
X114279276Y-94065590D02*
X114326895Y-94113209D01*
X114326895Y-94113209D02*
X114374514Y-94208447D01*
X114374514Y-94208447D02*
X114374514Y-94446542D01*
X114374514Y-94446542D02*
X114326895Y-94541780D01*
X114326895Y-94541780D02*
X114279276Y-94589400D01*
X114279276Y-94589400D02*
X114184038Y-94637019D01*
X114184038Y-94637019D02*
X113898324Y-94637019D01*
X113898324Y-94637019D02*
X113803086Y-94589400D01*
X113803086Y-94589400D02*
X113755467Y-94541780D01*
X118197333Y-49350819D02*
X117864000Y-48874628D01*
X117625905Y-49350819D02*
X117625905Y-48350819D01*
X117625905Y-48350819D02*
X118006857Y-48350819D01*
X118006857Y-48350819D02*
X118102095Y-48398438D01*
X118102095Y-48398438D02*
X118149714Y-48446057D01*
X118149714Y-48446057D02*
X118197333Y-48541295D01*
X118197333Y-48541295D02*
X118197333Y-48684152D01*
X118197333Y-48684152D02*
X118149714Y-48779390D01*
X118149714Y-48779390D02*
X118102095Y-48827009D01*
X118102095Y-48827009D02*
X118006857Y-48874628D01*
X118006857Y-48874628D02*
X117625905Y-48874628D01*
X118578286Y-48446057D02*
X118625905Y-48398438D01*
X118625905Y-48398438D02*
X118721143Y-48350819D01*
X118721143Y-48350819D02*
X118959238Y-48350819D01*
X118959238Y-48350819D02*
X119054476Y-48398438D01*
X119054476Y-48398438D02*
X119102095Y-48446057D01*
X119102095Y-48446057D02*
X119149714Y-48541295D01*
X119149714Y-48541295D02*
X119149714Y-48636533D01*
X119149714Y-48636533D02*
X119102095Y-48779390D01*
X119102095Y-48779390D02*
X118530667Y-49350819D01*
X118530667Y-49350819D02*
X119149714Y-49350819D01*
X87448105Y-76343419D02*
X87448105Y-75343419D01*
X87448105Y-75343419D02*
X87686200Y-75343419D01*
X87686200Y-75343419D02*
X87829057Y-75391038D01*
X87829057Y-75391038D02*
X87924295Y-75486276D01*
X87924295Y-75486276D02*
X87971914Y-75581514D01*
X87971914Y-75581514D02*
X88019533Y-75771990D01*
X88019533Y-75771990D02*
X88019533Y-75914847D01*
X88019533Y-75914847D02*
X87971914Y-76105323D01*
X87971914Y-76105323D02*
X87924295Y-76200561D01*
X87924295Y-76200561D02*
X87829057Y-76295800D01*
X87829057Y-76295800D02*
X87686200Y-76343419D01*
X87686200Y-76343419D02*
X87448105Y-76343419D01*
X88971914Y-76343419D02*
X88400486Y-76343419D01*
X88686200Y-76343419D02*
X88686200Y-75343419D01*
X88686200Y-75343419D02*
X88590962Y-75486276D01*
X88590962Y-75486276D02*
X88495724Y-75581514D01*
X88495724Y-75581514D02*
X88400486Y-75629133D01*
X122653419Y-61204933D02*
X123367704Y-61204933D01*
X123367704Y-61204933D02*
X123510561Y-61252552D01*
X123510561Y-61252552D02*
X123605800Y-61347790D01*
X123605800Y-61347790D02*
X123653419Y-61490647D01*
X123653419Y-61490647D02*
X123653419Y-61585885D01*
X122748657Y-60776361D02*
X122701038Y-60728742D01*
X122701038Y-60728742D02*
X122653419Y-60633504D01*
X122653419Y-60633504D02*
X122653419Y-60395409D01*
X122653419Y-60395409D02*
X122701038Y-60300171D01*
X122701038Y-60300171D02*
X122748657Y-60252552D01*
X122748657Y-60252552D02*
X122843895Y-60204933D01*
X122843895Y-60204933D02*
X122939133Y-60204933D01*
X122939133Y-60204933D02*
X123081990Y-60252552D01*
X123081990Y-60252552D02*
X123653419Y-60823980D01*
X123653419Y-60823980D02*
X123653419Y-60204933D01*
X113419533Y-80565419D02*
X113086200Y-80089228D01*
X112848105Y-80565419D02*
X112848105Y-79565419D01*
X112848105Y-79565419D02*
X113229057Y-79565419D01*
X113229057Y-79565419D02*
X113324295Y-79613038D01*
X113324295Y-79613038D02*
X113371914Y-79660657D01*
X113371914Y-79660657D02*
X113419533Y-79755895D01*
X113419533Y-79755895D02*
X113419533Y-79898752D01*
X113419533Y-79898752D02*
X113371914Y-79993990D01*
X113371914Y-79993990D02*
X113324295Y-80041609D01*
X113324295Y-80041609D02*
X113229057Y-80089228D01*
X113229057Y-80089228D02*
X112848105Y-80089228D01*
X113752867Y-79565419D02*
X114371914Y-79565419D01*
X114371914Y-79565419D02*
X114038581Y-79946371D01*
X114038581Y-79946371D02*
X114181438Y-79946371D01*
X114181438Y-79946371D02*
X114276676Y-79993990D01*
X114276676Y-79993990D02*
X114324295Y-80041609D01*
X114324295Y-80041609D02*
X114371914Y-80136847D01*
X114371914Y-80136847D02*
X114371914Y-80374942D01*
X114371914Y-80374942D02*
X114324295Y-80470180D01*
X114324295Y-80470180D02*
X114276676Y-80517800D01*
X114276676Y-80517800D02*
X114181438Y-80565419D01*
X114181438Y-80565419D02*
X113895724Y-80565419D01*
X113895724Y-80565419D02*
X113800486Y-80517800D01*
X113800486Y-80517800D02*
X113752867Y-80470180D01*
X88972105Y-80915419D02*
X88972105Y-79915419D01*
X88972105Y-79915419D02*
X89210200Y-79915419D01*
X89210200Y-79915419D02*
X89353057Y-79963038D01*
X89353057Y-79963038D02*
X89448295Y-80058276D01*
X89448295Y-80058276D02*
X89495914Y-80153514D01*
X89495914Y-80153514D02*
X89543533Y-80343990D01*
X89543533Y-80343990D02*
X89543533Y-80486847D01*
X89543533Y-80486847D02*
X89495914Y-80677323D01*
X89495914Y-80677323D02*
X89448295Y-80772561D01*
X89448295Y-80772561D02*
X89353057Y-80867800D01*
X89353057Y-80867800D02*
X89210200Y-80915419D01*
X89210200Y-80915419D02*
X88972105Y-80915419D01*
X89924486Y-80010657D02*
X89972105Y-79963038D01*
X89972105Y-79963038D02*
X90067343Y-79915419D01*
X90067343Y-79915419D02*
X90305438Y-79915419D01*
X90305438Y-79915419D02*
X90400676Y-79963038D01*
X90400676Y-79963038D02*
X90448295Y-80010657D01*
X90448295Y-80010657D02*
X90495914Y-80105895D01*
X90495914Y-80105895D02*
X90495914Y-80201133D01*
X90495914Y-80201133D02*
X90448295Y-80343990D01*
X90448295Y-80343990D02*
X89876867Y-80915419D01*
X89876867Y-80915419D02*
X90495914Y-80915419D01*
X88974705Y-94987019D02*
X88974705Y-93987019D01*
X88974705Y-93987019D02*
X89212800Y-93987019D01*
X89212800Y-93987019D02*
X89355657Y-94034638D01*
X89355657Y-94034638D02*
X89450895Y-94129876D01*
X89450895Y-94129876D02*
X89498514Y-94225114D01*
X89498514Y-94225114D02*
X89546133Y-94415590D01*
X89546133Y-94415590D02*
X89546133Y-94558447D01*
X89546133Y-94558447D02*
X89498514Y-94748923D01*
X89498514Y-94748923D02*
X89450895Y-94844161D01*
X89450895Y-94844161D02*
X89355657Y-94939400D01*
X89355657Y-94939400D02*
X89212800Y-94987019D01*
X89212800Y-94987019D02*
X88974705Y-94987019D01*
X89927086Y-94082257D02*
X89974705Y-94034638D01*
X89974705Y-94034638D02*
X90069943Y-93987019D01*
X90069943Y-93987019D02*
X90308038Y-93987019D01*
X90308038Y-93987019D02*
X90403276Y-94034638D01*
X90403276Y-94034638D02*
X90450895Y-94082257D01*
X90450895Y-94082257D02*
X90498514Y-94177495D01*
X90498514Y-94177495D02*
X90498514Y-94272733D01*
X90498514Y-94272733D02*
X90450895Y-94415590D01*
X90450895Y-94415590D02*
X89879467Y-94987019D01*
X89879467Y-94987019D02*
X90498514Y-94987019D01*
X87973933Y-59461180D02*
X87926314Y-59508800D01*
X87926314Y-59508800D02*
X87783457Y-59556419D01*
X87783457Y-59556419D02*
X87688219Y-59556419D01*
X87688219Y-59556419D02*
X87545362Y-59508800D01*
X87545362Y-59508800D02*
X87450124Y-59413561D01*
X87450124Y-59413561D02*
X87402505Y-59318323D01*
X87402505Y-59318323D02*
X87354886Y-59127847D01*
X87354886Y-59127847D02*
X87354886Y-58984990D01*
X87354886Y-58984990D02*
X87402505Y-58794514D01*
X87402505Y-58794514D02*
X87450124Y-58699276D01*
X87450124Y-58699276D02*
X87545362Y-58604038D01*
X87545362Y-58604038D02*
X87688219Y-58556419D01*
X87688219Y-58556419D02*
X87783457Y-58556419D01*
X87783457Y-58556419D02*
X87926314Y-58604038D01*
X87926314Y-58604038D02*
X87973933Y-58651657D01*
X88926314Y-59556419D02*
X88354886Y-59556419D01*
X88640600Y-59556419D02*
X88640600Y-58556419D01*
X88640600Y-58556419D02*
X88545362Y-58699276D01*
X88545362Y-58699276D02*
X88450124Y-58794514D01*
X88450124Y-58794514D02*
X88354886Y-58842133D01*
X123302819Y-44675094D02*
X122302819Y-44675094D01*
X122302819Y-44675094D02*
X122302819Y-44436999D01*
X122302819Y-44436999D02*
X122350438Y-44294142D01*
X122350438Y-44294142D02*
X122445676Y-44198904D01*
X122445676Y-44198904D02*
X122540914Y-44151285D01*
X122540914Y-44151285D02*
X122731390Y-44103666D01*
X122731390Y-44103666D02*
X122874247Y-44103666D01*
X122874247Y-44103666D02*
X123064723Y-44151285D01*
X123064723Y-44151285D02*
X123159961Y-44198904D01*
X123159961Y-44198904D02*
X123255200Y-44294142D01*
X123255200Y-44294142D02*
X123302819Y-44436999D01*
X123302819Y-44436999D02*
X123302819Y-44675094D01*
X122302819Y-43770332D02*
X122302819Y-43151285D01*
X122302819Y-43151285D02*
X122683771Y-43484618D01*
X122683771Y-43484618D02*
X122683771Y-43341761D01*
X122683771Y-43341761D02*
X122731390Y-43246523D01*
X122731390Y-43246523D02*
X122779009Y-43198904D01*
X122779009Y-43198904D02*
X122874247Y-43151285D01*
X122874247Y-43151285D02*
X123112342Y-43151285D01*
X123112342Y-43151285D02*
X123207580Y-43198904D01*
X123207580Y-43198904D02*
X123255200Y-43246523D01*
X123255200Y-43246523D02*
X123302819Y-43341761D01*
X123302819Y-43341761D02*
X123302819Y-43627475D01*
X123302819Y-43627475D02*
X123255200Y-43722713D01*
X123255200Y-43722713D02*
X123207580Y-43770332D01*
X98941533Y-81581419D02*
X98608200Y-81105228D01*
X98370105Y-81581419D02*
X98370105Y-80581419D01*
X98370105Y-80581419D02*
X98751057Y-80581419D01*
X98751057Y-80581419D02*
X98846295Y-80629038D01*
X98846295Y-80629038D02*
X98893914Y-80676657D01*
X98893914Y-80676657D02*
X98941533Y-80771895D01*
X98941533Y-80771895D02*
X98941533Y-80914752D01*
X98941533Y-80914752D02*
X98893914Y-81009990D01*
X98893914Y-81009990D02*
X98846295Y-81057609D01*
X98846295Y-81057609D02*
X98751057Y-81105228D01*
X98751057Y-81105228D02*
X98370105Y-81105228D01*
X99893914Y-81581419D02*
X99322486Y-81581419D01*
X99608200Y-81581419D02*
X99608200Y-80581419D01*
X99608200Y-80581419D02*
X99512962Y-80724276D01*
X99512962Y-80724276D02*
X99417724Y-80819514D01*
X99417724Y-80819514D02*
X99322486Y-80867133D01*
X88022133Y-87629780D02*
X87974514Y-87677400D01*
X87974514Y-87677400D02*
X87831657Y-87725019D01*
X87831657Y-87725019D02*
X87736419Y-87725019D01*
X87736419Y-87725019D02*
X87593562Y-87677400D01*
X87593562Y-87677400D02*
X87498324Y-87582161D01*
X87498324Y-87582161D02*
X87450705Y-87486923D01*
X87450705Y-87486923D02*
X87403086Y-87296447D01*
X87403086Y-87296447D02*
X87403086Y-87153590D01*
X87403086Y-87153590D02*
X87450705Y-86963114D01*
X87450705Y-86963114D02*
X87498324Y-86867876D01*
X87498324Y-86867876D02*
X87593562Y-86772638D01*
X87593562Y-86772638D02*
X87736419Y-86725019D01*
X87736419Y-86725019D02*
X87831657Y-86725019D01*
X87831657Y-86725019D02*
X87974514Y-86772638D01*
X87974514Y-86772638D02*
X88022133Y-86820257D01*
X88974514Y-87725019D02*
X88403086Y-87725019D01*
X88688800Y-87725019D02*
X88688800Y-86725019D01*
X88688800Y-86725019D02*
X88593562Y-86867876D01*
X88593562Y-86867876D02*
X88498324Y-86963114D01*
X88498324Y-86963114D02*
X88403086Y-87010733D01*
X123353619Y-86915294D02*
X122353619Y-86915294D01*
X122353619Y-86915294D02*
X122353619Y-86677199D01*
X122353619Y-86677199D02*
X122401238Y-86534342D01*
X122401238Y-86534342D02*
X122496476Y-86439104D01*
X122496476Y-86439104D02*
X122591714Y-86391485D01*
X122591714Y-86391485D02*
X122782190Y-86343866D01*
X122782190Y-86343866D02*
X122925047Y-86343866D01*
X122925047Y-86343866D02*
X123115523Y-86391485D01*
X123115523Y-86391485D02*
X123210761Y-86439104D01*
X123210761Y-86439104D02*
X123306000Y-86534342D01*
X123306000Y-86534342D02*
X123353619Y-86677199D01*
X123353619Y-86677199D02*
X123353619Y-86915294D01*
X122353619Y-86010532D02*
X122353619Y-85391485D01*
X122353619Y-85391485D02*
X122734571Y-85724818D01*
X122734571Y-85724818D02*
X122734571Y-85581961D01*
X122734571Y-85581961D02*
X122782190Y-85486723D01*
X122782190Y-85486723D02*
X122829809Y-85439104D01*
X122829809Y-85439104D02*
X122925047Y-85391485D01*
X122925047Y-85391485D02*
X123163142Y-85391485D01*
X123163142Y-85391485D02*
X123258380Y-85439104D01*
X123258380Y-85439104D02*
X123306000Y-85486723D01*
X123306000Y-85486723D02*
X123353619Y-85581961D01*
X123353619Y-85581961D02*
X123353619Y-85867675D01*
X123353619Y-85867675D02*
X123306000Y-85962913D01*
X123306000Y-85962913D02*
X123258380Y-86010532D01*
X97568866Y-75877419D02*
X97568866Y-76591704D01*
X97568866Y-76591704D02*
X97521247Y-76734561D01*
X97521247Y-76734561D02*
X97426009Y-76829800D01*
X97426009Y-76829800D02*
X97283152Y-76877419D01*
X97283152Y-76877419D02*
X97187914Y-76877419D01*
X98568866Y-76877419D02*
X97997438Y-76877419D01*
X98283152Y-76877419D02*
X98283152Y-75877419D01*
X98283152Y-75877419D02*
X98187914Y-76020276D01*
X98187914Y-76020276D02*
X98092676Y-76115514D01*
X98092676Y-76115514D02*
X97997438Y-76163133D01*
X122699019Y-75301933D02*
X123413304Y-75301933D01*
X123413304Y-75301933D02*
X123556161Y-75349552D01*
X123556161Y-75349552D02*
X123651400Y-75444790D01*
X123651400Y-75444790D02*
X123699019Y-75587647D01*
X123699019Y-75587647D02*
X123699019Y-75682885D01*
X122794257Y-74873361D02*
X122746638Y-74825742D01*
X122746638Y-74825742D02*
X122699019Y-74730504D01*
X122699019Y-74730504D02*
X122699019Y-74492409D01*
X122699019Y-74492409D02*
X122746638Y-74397171D01*
X122746638Y-74397171D02*
X122794257Y-74349552D01*
X122794257Y-74349552D02*
X122889495Y-74301933D01*
X122889495Y-74301933D02*
X122984733Y-74301933D01*
X122984733Y-74301933D02*
X123127590Y-74349552D01*
X123127590Y-74349552D02*
X123699019Y-74920980D01*
X123699019Y-74920980D02*
X123699019Y-74301933D01*
X122650819Y-47133333D02*
X123365104Y-47133333D01*
X123365104Y-47133333D02*
X123507961Y-47180952D01*
X123507961Y-47180952D02*
X123603200Y-47276190D01*
X123603200Y-47276190D02*
X123650819Y-47419047D01*
X123650819Y-47419047D02*
X123650819Y-47514285D01*
X122746057Y-46704761D02*
X122698438Y-46657142D01*
X122698438Y-46657142D02*
X122650819Y-46561904D01*
X122650819Y-46561904D02*
X122650819Y-46323809D01*
X122650819Y-46323809D02*
X122698438Y-46228571D01*
X122698438Y-46228571D02*
X122746057Y-46180952D01*
X122746057Y-46180952D02*
X122841295Y-46133333D01*
X122841295Y-46133333D02*
X122936533Y-46133333D01*
X122936533Y-46133333D02*
X123079390Y-46180952D01*
X123079390Y-46180952D02*
X123650819Y-46752380D01*
X123650819Y-46752380D02*
X123650819Y-46133333D01*
X123351019Y-72843694D02*
X122351019Y-72843694D01*
X122351019Y-72843694D02*
X122351019Y-72605599D01*
X122351019Y-72605599D02*
X122398638Y-72462742D01*
X122398638Y-72462742D02*
X122493876Y-72367504D01*
X122493876Y-72367504D02*
X122589114Y-72319885D01*
X122589114Y-72319885D02*
X122779590Y-72272266D01*
X122779590Y-72272266D02*
X122922447Y-72272266D01*
X122922447Y-72272266D02*
X123112923Y-72319885D01*
X123112923Y-72319885D02*
X123208161Y-72367504D01*
X123208161Y-72367504D02*
X123303400Y-72462742D01*
X123303400Y-72462742D02*
X123351019Y-72605599D01*
X123351019Y-72605599D02*
X123351019Y-72843694D01*
X122351019Y-71938932D02*
X122351019Y-71319885D01*
X122351019Y-71319885D02*
X122731971Y-71653218D01*
X122731971Y-71653218D02*
X122731971Y-71510361D01*
X122731971Y-71510361D02*
X122779590Y-71415123D01*
X122779590Y-71415123D02*
X122827209Y-71367504D01*
X122827209Y-71367504D02*
X122922447Y-71319885D01*
X122922447Y-71319885D02*
X123160542Y-71319885D01*
X123160542Y-71319885D02*
X123255780Y-71367504D01*
X123255780Y-71367504D02*
X123303400Y-71415123D01*
X123303400Y-71415123D02*
X123351019Y-71510361D01*
X123351019Y-71510361D02*
X123351019Y-71796075D01*
X123351019Y-71796075D02*
X123303400Y-71891313D01*
X123303400Y-71891313D02*
X123255780Y-71938932D01*
X88019533Y-73558180D02*
X87971914Y-73605800D01*
X87971914Y-73605800D02*
X87829057Y-73653419D01*
X87829057Y-73653419D02*
X87733819Y-73653419D01*
X87733819Y-73653419D02*
X87590962Y-73605800D01*
X87590962Y-73605800D02*
X87495724Y-73510561D01*
X87495724Y-73510561D02*
X87448105Y-73415323D01*
X87448105Y-73415323D02*
X87400486Y-73224847D01*
X87400486Y-73224847D02*
X87400486Y-73081990D01*
X87400486Y-73081990D02*
X87448105Y-72891514D01*
X87448105Y-72891514D02*
X87495724Y-72796276D01*
X87495724Y-72796276D02*
X87590962Y-72701038D01*
X87590962Y-72701038D02*
X87733819Y-72653419D01*
X87733819Y-72653419D02*
X87829057Y-72653419D01*
X87829057Y-72653419D02*
X87971914Y-72701038D01*
X87971914Y-72701038D02*
X88019533Y-72748657D01*
X88971914Y-73653419D02*
X88400486Y-73653419D01*
X88686200Y-73653419D02*
X88686200Y-72653419D01*
X88686200Y-72653419D02*
X88590962Y-72796276D01*
X88590962Y-72796276D02*
X88495724Y-72891514D01*
X88495724Y-72891514D02*
X88400486Y-72939133D01*
X88926505Y-66818419D02*
X88926505Y-65818419D01*
X88926505Y-65818419D02*
X89164600Y-65818419D01*
X89164600Y-65818419D02*
X89307457Y-65866038D01*
X89307457Y-65866038D02*
X89402695Y-65961276D01*
X89402695Y-65961276D02*
X89450314Y-66056514D01*
X89450314Y-66056514D02*
X89497933Y-66246990D01*
X89497933Y-66246990D02*
X89497933Y-66389847D01*
X89497933Y-66389847D02*
X89450314Y-66580323D01*
X89450314Y-66580323D02*
X89402695Y-66675561D01*
X89402695Y-66675561D02*
X89307457Y-66770800D01*
X89307457Y-66770800D02*
X89164600Y-66818419D01*
X89164600Y-66818419D02*
X88926505Y-66818419D01*
X89878886Y-65913657D02*
X89926505Y-65866038D01*
X89926505Y-65866038D02*
X90021743Y-65818419D01*
X90021743Y-65818419D02*
X90259838Y-65818419D01*
X90259838Y-65818419D02*
X90355076Y-65866038D01*
X90355076Y-65866038D02*
X90402695Y-65913657D01*
X90402695Y-65913657D02*
X90450314Y-66008895D01*
X90450314Y-66008895D02*
X90450314Y-66104133D01*
X90450314Y-66104133D02*
X90402695Y-66246990D01*
X90402695Y-66246990D02*
X89831267Y-66818419D01*
X89831267Y-66818419D02*
X90450314Y-66818419D01*
X87971333Y-45389580D02*
X87923714Y-45437200D01*
X87923714Y-45437200D02*
X87780857Y-45484819D01*
X87780857Y-45484819D02*
X87685619Y-45484819D01*
X87685619Y-45484819D02*
X87542762Y-45437200D01*
X87542762Y-45437200D02*
X87447524Y-45341961D01*
X87447524Y-45341961D02*
X87399905Y-45246723D01*
X87399905Y-45246723D02*
X87352286Y-45056247D01*
X87352286Y-45056247D02*
X87352286Y-44913390D01*
X87352286Y-44913390D02*
X87399905Y-44722914D01*
X87399905Y-44722914D02*
X87447524Y-44627676D01*
X87447524Y-44627676D02*
X87542762Y-44532438D01*
X87542762Y-44532438D02*
X87685619Y-44484819D01*
X87685619Y-44484819D02*
X87780857Y-44484819D01*
X87780857Y-44484819D02*
X87923714Y-44532438D01*
X87923714Y-44532438D02*
X87971333Y-44580057D01*
X88923714Y-45484819D02*
X88352286Y-45484819D01*
X88638000Y-45484819D02*
X88638000Y-44484819D01*
X88638000Y-44484819D02*
X88542762Y-44627676D01*
X88542762Y-44627676D02*
X88447524Y-44722914D01*
X88447524Y-44722914D02*
X88352286Y-44770533D01*
X118245533Y-77519419D02*
X117912200Y-77043228D01*
X117674105Y-77519419D02*
X117674105Y-76519419D01*
X117674105Y-76519419D02*
X118055057Y-76519419D01*
X118055057Y-76519419D02*
X118150295Y-76567038D01*
X118150295Y-76567038D02*
X118197914Y-76614657D01*
X118197914Y-76614657D02*
X118245533Y-76709895D01*
X118245533Y-76709895D02*
X118245533Y-76852752D01*
X118245533Y-76852752D02*
X118197914Y-76947990D01*
X118197914Y-76947990D02*
X118150295Y-76995609D01*
X118150295Y-76995609D02*
X118055057Y-77043228D01*
X118055057Y-77043228D02*
X117674105Y-77043228D01*
X118626486Y-76614657D02*
X118674105Y-76567038D01*
X118674105Y-76567038D02*
X118769343Y-76519419D01*
X118769343Y-76519419D02*
X119007438Y-76519419D01*
X119007438Y-76519419D02*
X119102676Y-76567038D01*
X119102676Y-76567038D02*
X119150295Y-76614657D01*
X119150295Y-76614657D02*
X119197914Y-76709895D01*
X119197914Y-76709895D02*
X119197914Y-76805133D01*
X119197914Y-76805133D02*
X119150295Y-76947990D01*
X119150295Y-76947990D02*
X118578867Y-77519419D01*
X118578867Y-77519419D02*
X119197914Y-77519419D01*
X98941533Y-79549419D02*
X98608200Y-79073228D01*
X98370105Y-79549419D02*
X98370105Y-78549419D01*
X98370105Y-78549419D02*
X98751057Y-78549419D01*
X98751057Y-78549419D02*
X98846295Y-78597038D01*
X98846295Y-78597038D02*
X98893914Y-78644657D01*
X98893914Y-78644657D02*
X98941533Y-78739895D01*
X98941533Y-78739895D02*
X98941533Y-78882752D01*
X98941533Y-78882752D02*
X98893914Y-78977990D01*
X98893914Y-78977990D02*
X98846295Y-79025609D01*
X98846295Y-79025609D02*
X98751057Y-79073228D01*
X98751057Y-79073228D02*
X98370105Y-79073228D01*
X99798676Y-78882752D02*
X99798676Y-79549419D01*
X99560581Y-78501800D02*
X99322486Y-79216085D01*
X99322486Y-79216085D02*
X99941533Y-79216085D01*
X122701619Y-89373533D02*
X123415904Y-89373533D01*
X123415904Y-89373533D02*
X123558761Y-89421152D01*
X123558761Y-89421152D02*
X123654000Y-89516390D01*
X123654000Y-89516390D02*
X123701619Y-89659247D01*
X123701619Y-89659247D02*
X123701619Y-89754485D01*
X122796857Y-88944961D02*
X122749238Y-88897342D01*
X122749238Y-88897342D02*
X122701619Y-88802104D01*
X122701619Y-88802104D02*
X122701619Y-88564009D01*
X122701619Y-88564009D02*
X122749238Y-88468771D01*
X122749238Y-88468771D02*
X122796857Y-88421152D01*
X122796857Y-88421152D02*
X122892095Y-88373533D01*
X122892095Y-88373533D02*
X122987333Y-88373533D01*
X122987333Y-88373533D02*
X123130190Y-88421152D01*
X123130190Y-88421152D02*
X123701619Y-88992580D01*
X123701619Y-88992580D02*
X123701619Y-88373533D01*
D11*
X74216295Y-73592019D02*
X74216295Y-74401542D01*
X74216295Y-74401542D02*
X74263914Y-74496780D01*
X74263914Y-74496780D02*
X74311533Y-74544400D01*
X74311533Y-74544400D02*
X74406771Y-74592019D01*
X74406771Y-74592019D02*
X74597247Y-74592019D01*
X74597247Y-74592019D02*
X74692485Y-74544400D01*
X74692485Y-74544400D02*
X74740104Y-74496780D01*
X74740104Y-74496780D02*
X74787723Y-74401542D01*
X74787723Y-74401542D02*
X74787723Y-73592019D01*
X75216295Y-73687257D02*
X75263914Y-73639638D01*
X75263914Y-73639638D02*
X75359152Y-73592019D01*
X75359152Y-73592019D02*
X75597247Y-73592019D01*
X75597247Y-73592019D02*
X75692485Y-73639638D01*
X75692485Y-73639638D02*
X75740104Y-73687257D01*
X75740104Y-73687257D02*
X75787723Y-73782495D01*
X75787723Y-73782495D02*
X75787723Y-73877733D01*
X75787723Y-73877733D02*
X75740104Y-74020590D01*
X75740104Y-74020590D02*
X75168676Y-74592019D01*
X75168676Y-74592019D02*
X75787723Y-74592019D01*
X80362084Y-73507019D02*
X80362084Y-74316542D01*
X80362084Y-74316542D02*
X80409703Y-74411780D01*
X80409703Y-74411780D02*
X80457322Y-74459400D01*
X80457322Y-74459400D02*
X80552560Y-74507019D01*
X80552560Y-74507019D02*
X80743036Y-74507019D01*
X80743036Y-74507019D02*
X80838274Y-74459400D01*
X80838274Y-74459400D02*
X80885893Y-74411780D01*
X80885893Y-74411780D02*
X80933512Y-74316542D01*
X80933512Y-74316542D02*
X80933512Y-73507019D01*
X81362084Y-74459400D02*
X81504941Y-74507019D01*
X81504941Y-74507019D02*
X81743036Y-74507019D01*
X81743036Y-74507019D02*
X81838274Y-74459400D01*
X81838274Y-74459400D02*
X81885893Y-74411780D01*
X81885893Y-74411780D02*
X81933512Y-74316542D01*
X81933512Y-74316542D02*
X81933512Y-74221304D01*
X81933512Y-74221304D02*
X81885893Y-74126066D01*
X81885893Y-74126066D02*
X81838274Y-74078447D01*
X81838274Y-74078447D02*
X81743036Y-74030828D01*
X81743036Y-74030828D02*
X81552560Y-73983209D01*
X81552560Y-73983209D02*
X81457322Y-73935590D01*
X81457322Y-73935590D02*
X81409703Y-73887971D01*
X81409703Y-73887971D02*
X81362084Y-73792733D01*
X81362084Y-73792733D02*
X81362084Y-73697495D01*
X81362084Y-73697495D02*
X81409703Y-73602257D01*
X81409703Y-73602257D02*
X81457322Y-73554638D01*
X81457322Y-73554638D02*
X81552560Y-73507019D01*
X81552560Y-73507019D02*
X81790655Y-73507019D01*
X81790655Y-73507019D02*
X81933512Y-73554638D01*
X82695417Y-73983209D02*
X82838274Y-74030828D01*
X82838274Y-74030828D02*
X82885893Y-74078447D01*
X82885893Y-74078447D02*
X82933512Y-74173685D01*
X82933512Y-74173685D02*
X82933512Y-74316542D01*
X82933512Y-74316542D02*
X82885893Y-74411780D01*
X82885893Y-74411780D02*
X82838274Y-74459400D01*
X82838274Y-74459400D02*
X82743036Y-74507019D01*
X82743036Y-74507019D02*
X82362084Y-74507019D01*
X82362084Y-74507019D02*
X82362084Y-73507019D01*
X82362084Y-73507019D02*
X82695417Y-73507019D01*
X82695417Y-73507019D02*
X82790655Y-73554638D01*
X82790655Y-73554638D02*
X82838274Y-73602257D01*
X82838274Y-73602257D02*
X82885893Y-73697495D01*
X82885893Y-73697495D02*
X82885893Y-73792733D01*
X82885893Y-73792733D02*
X82838274Y-73887971D01*
X82838274Y-73887971D02*
X82790655Y-73935590D01*
X82790655Y-73935590D02*
X82695417Y-73983209D01*
X82695417Y-73983209D02*
X82362084Y-73983209D01*
D10*
X97571466Y-89949019D02*
X97571466Y-90663304D01*
X97571466Y-90663304D02*
X97523847Y-90806161D01*
X97523847Y-90806161D02*
X97428609Y-90901400D01*
X97428609Y-90901400D02*
X97285752Y-90949019D01*
X97285752Y-90949019D02*
X97190514Y-90949019D01*
X98571466Y-90949019D02*
X98000038Y-90949019D01*
X98285752Y-90949019D02*
X98285752Y-89949019D01*
X98285752Y-89949019D02*
X98190514Y-90091876D01*
X98190514Y-90091876D02*
X98095276Y-90187114D01*
X98095276Y-90187114D02*
X98000038Y-90234733D01*
X98944133Y-93621019D02*
X98610800Y-93144828D01*
X98372705Y-93621019D02*
X98372705Y-92621019D01*
X98372705Y-92621019D02*
X98753657Y-92621019D01*
X98753657Y-92621019D02*
X98848895Y-92668638D01*
X98848895Y-92668638D02*
X98896514Y-92716257D01*
X98896514Y-92716257D02*
X98944133Y-92811495D01*
X98944133Y-92811495D02*
X98944133Y-92954352D01*
X98944133Y-92954352D02*
X98896514Y-93049590D01*
X98896514Y-93049590D02*
X98848895Y-93097209D01*
X98848895Y-93097209D02*
X98753657Y-93144828D01*
X98753657Y-93144828D02*
X98372705Y-93144828D01*
X99801276Y-92954352D02*
X99801276Y-93621019D01*
X99563181Y-92573400D02*
X99325086Y-93287685D01*
X99325086Y-93287685D02*
X99944133Y-93287685D01*
X87399905Y-48174819D02*
X87399905Y-47174819D01*
X87399905Y-47174819D02*
X87638000Y-47174819D01*
X87638000Y-47174819D02*
X87780857Y-47222438D01*
X87780857Y-47222438D02*
X87876095Y-47317676D01*
X87876095Y-47317676D02*
X87923714Y-47412914D01*
X87923714Y-47412914D02*
X87971333Y-47603390D01*
X87971333Y-47603390D02*
X87971333Y-47746247D01*
X87971333Y-47746247D02*
X87923714Y-47936723D01*
X87923714Y-47936723D02*
X87876095Y-48031961D01*
X87876095Y-48031961D02*
X87780857Y-48127200D01*
X87780857Y-48127200D02*
X87638000Y-48174819D01*
X87638000Y-48174819D02*
X87399905Y-48174819D01*
X88923714Y-48174819D02*
X88352286Y-48174819D01*
X88638000Y-48174819D02*
X88638000Y-47174819D01*
X88638000Y-47174819D02*
X88542762Y-47317676D01*
X88542762Y-47317676D02*
X88447524Y-47412914D01*
X88447524Y-47412914D02*
X88352286Y-47460533D01*
X98944133Y-95653019D02*
X98610800Y-95176828D01*
X98372705Y-95653019D02*
X98372705Y-94653019D01*
X98372705Y-94653019D02*
X98753657Y-94653019D01*
X98753657Y-94653019D02*
X98848895Y-94700638D01*
X98848895Y-94700638D02*
X98896514Y-94748257D01*
X98896514Y-94748257D02*
X98944133Y-94843495D01*
X98944133Y-94843495D02*
X98944133Y-94986352D01*
X98944133Y-94986352D02*
X98896514Y-95081590D01*
X98896514Y-95081590D02*
X98848895Y-95129209D01*
X98848895Y-95129209D02*
X98753657Y-95176828D01*
X98753657Y-95176828D02*
X98372705Y-95176828D01*
X99896514Y-95653019D02*
X99325086Y-95653019D01*
X99610800Y-95653019D02*
X99610800Y-94653019D01*
X99610800Y-94653019D02*
X99515562Y-94795876D01*
X99515562Y-94795876D02*
X99420324Y-94891114D01*
X99420324Y-94891114D02*
X99325086Y-94938733D01*
X98893333Y-53412819D02*
X98560000Y-52936628D01*
X98321905Y-53412819D02*
X98321905Y-52412819D01*
X98321905Y-52412819D02*
X98702857Y-52412819D01*
X98702857Y-52412819D02*
X98798095Y-52460438D01*
X98798095Y-52460438D02*
X98845714Y-52508057D01*
X98845714Y-52508057D02*
X98893333Y-52603295D01*
X98893333Y-52603295D02*
X98893333Y-52746152D01*
X98893333Y-52746152D02*
X98845714Y-52841390D01*
X98845714Y-52841390D02*
X98798095Y-52889009D01*
X98798095Y-52889009D02*
X98702857Y-52936628D01*
X98702857Y-52936628D02*
X98321905Y-52936628D01*
X99845714Y-53412819D02*
X99274286Y-53412819D01*
X99560000Y-53412819D02*
X99560000Y-52412819D01*
X99560000Y-52412819D02*
X99464762Y-52555676D01*
X99464762Y-52555676D02*
X99369524Y-52650914D01*
X99369524Y-52650914D02*
X99274286Y-52698533D01*
X88923905Y-52746819D02*
X88923905Y-51746819D01*
X88923905Y-51746819D02*
X89162000Y-51746819D01*
X89162000Y-51746819D02*
X89304857Y-51794438D01*
X89304857Y-51794438D02*
X89400095Y-51889676D01*
X89400095Y-51889676D02*
X89447714Y-51984914D01*
X89447714Y-51984914D02*
X89495333Y-52175390D01*
X89495333Y-52175390D02*
X89495333Y-52318247D01*
X89495333Y-52318247D02*
X89447714Y-52508723D01*
X89447714Y-52508723D02*
X89400095Y-52603961D01*
X89400095Y-52603961D02*
X89304857Y-52699200D01*
X89304857Y-52699200D02*
X89162000Y-52746819D01*
X89162000Y-52746819D02*
X88923905Y-52746819D01*
X89876286Y-51842057D02*
X89923905Y-51794438D01*
X89923905Y-51794438D02*
X90019143Y-51746819D01*
X90019143Y-51746819D02*
X90257238Y-51746819D01*
X90257238Y-51746819D02*
X90352476Y-51794438D01*
X90352476Y-51794438D02*
X90400095Y-51842057D01*
X90400095Y-51842057D02*
X90447714Y-51937295D01*
X90447714Y-51937295D02*
X90447714Y-52032533D01*
X90447714Y-52032533D02*
X90400095Y-52175390D01*
X90400095Y-52175390D02*
X89828667Y-52746819D01*
X89828667Y-52746819D02*
X90447714Y-52746819D01*
X98893333Y-51380819D02*
X98560000Y-50904628D01*
X98321905Y-51380819D02*
X98321905Y-50380819D01*
X98321905Y-50380819D02*
X98702857Y-50380819D01*
X98702857Y-50380819D02*
X98798095Y-50428438D01*
X98798095Y-50428438D02*
X98845714Y-50476057D01*
X98845714Y-50476057D02*
X98893333Y-50571295D01*
X98893333Y-50571295D02*
X98893333Y-50714152D01*
X98893333Y-50714152D02*
X98845714Y-50809390D01*
X98845714Y-50809390D02*
X98798095Y-50857009D01*
X98798095Y-50857009D02*
X98702857Y-50904628D01*
X98702857Y-50904628D02*
X98321905Y-50904628D01*
X99750476Y-50714152D02*
X99750476Y-51380819D01*
X99512381Y-50333200D02*
X99274286Y-51047485D01*
X99274286Y-51047485D02*
X99893333Y-51047485D01*
D11*
X74170695Y-59495019D02*
X74170695Y-60304542D01*
X74170695Y-60304542D02*
X74218314Y-60399780D01*
X74218314Y-60399780D02*
X74265933Y-60447400D01*
X74265933Y-60447400D02*
X74361171Y-60495019D01*
X74361171Y-60495019D02*
X74551647Y-60495019D01*
X74551647Y-60495019D02*
X74646885Y-60447400D01*
X74646885Y-60447400D02*
X74694504Y-60399780D01*
X74694504Y-60399780D02*
X74742123Y-60304542D01*
X74742123Y-60304542D02*
X74742123Y-59495019D01*
X75170695Y-59590257D02*
X75218314Y-59542638D01*
X75218314Y-59542638D02*
X75313552Y-59495019D01*
X75313552Y-59495019D02*
X75551647Y-59495019D01*
X75551647Y-59495019D02*
X75646885Y-59542638D01*
X75646885Y-59542638D02*
X75694504Y-59590257D01*
X75694504Y-59590257D02*
X75742123Y-59685495D01*
X75742123Y-59685495D02*
X75742123Y-59780733D01*
X75742123Y-59780733D02*
X75694504Y-59923590D01*
X75694504Y-59923590D02*
X75123076Y-60495019D01*
X75123076Y-60495019D02*
X75742123Y-60495019D01*
X80316484Y-59410019D02*
X80316484Y-60219542D01*
X80316484Y-60219542D02*
X80364103Y-60314780D01*
X80364103Y-60314780D02*
X80411722Y-60362400D01*
X80411722Y-60362400D02*
X80506960Y-60410019D01*
X80506960Y-60410019D02*
X80697436Y-60410019D01*
X80697436Y-60410019D02*
X80792674Y-60362400D01*
X80792674Y-60362400D02*
X80840293Y-60314780D01*
X80840293Y-60314780D02*
X80887912Y-60219542D01*
X80887912Y-60219542D02*
X80887912Y-59410019D01*
X81316484Y-60362400D02*
X81459341Y-60410019D01*
X81459341Y-60410019D02*
X81697436Y-60410019D01*
X81697436Y-60410019D02*
X81792674Y-60362400D01*
X81792674Y-60362400D02*
X81840293Y-60314780D01*
X81840293Y-60314780D02*
X81887912Y-60219542D01*
X81887912Y-60219542D02*
X81887912Y-60124304D01*
X81887912Y-60124304D02*
X81840293Y-60029066D01*
X81840293Y-60029066D02*
X81792674Y-59981447D01*
X81792674Y-59981447D02*
X81697436Y-59933828D01*
X81697436Y-59933828D02*
X81506960Y-59886209D01*
X81506960Y-59886209D02*
X81411722Y-59838590D01*
X81411722Y-59838590D02*
X81364103Y-59790971D01*
X81364103Y-59790971D02*
X81316484Y-59695733D01*
X81316484Y-59695733D02*
X81316484Y-59600495D01*
X81316484Y-59600495D02*
X81364103Y-59505257D01*
X81364103Y-59505257D02*
X81411722Y-59457638D01*
X81411722Y-59457638D02*
X81506960Y-59410019D01*
X81506960Y-59410019D02*
X81745055Y-59410019D01*
X81745055Y-59410019D02*
X81887912Y-59457638D01*
X82649817Y-59886209D02*
X82792674Y-59933828D01*
X82792674Y-59933828D02*
X82840293Y-59981447D01*
X82840293Y-59981447D02*
X82887912Y-60076685D01*
X82887912Y-60076685D02*
X82887912Y-60219542D01*
X82887912Y-60219542D02*
X82840293Y-60314780D01*
X82840293Y-60314780D02*
X82792674Y-60362400D01*
X82792674Y-60362400D02*
X82697436Y-60410019D01*
X82697436Y-60410019D02*
X82316484Y-60410019D01*
X82316484Y-60410019D02*
X82316484Y-59410019D01*
X82316484Y-59410019D02*
X82649817Y-59410019D01*
X82649817Y-59410019D02*
X82745055Y-59457638D01*
X82745055Y-59457638D02*
X82792674Y-59505257D01*
X82792674Y-59505257D02*
X82840293Y-59600495D01*
X82840293Y-59600495D02*
X82840293Y-59695733D01*
X82840293Y-59695733D02*
X82792674Y-59790971D01*
X82792674Y-59790971D02*
X82745055Y-59838590D01*
X82745055Y-59838590D02*
X82649817Y-59886209D01*
X82649817Y-59886209D02*
X82316484Y-59886209D01*
X74168095Y-45423419D02*
X74168095Y-46232942D01*
X74168095Y-46232942D02*
X74215714Y-46328180D01*
X74215714Y-46328180D02*
X74263333Y-46375800D01*
X74263333Y-46375800D02*
X74358571Y-46423419D01*
X74358571Y-46423419D02*
X74549047Y-46423419D01*
X74549047Y-46423419D02*
X74644285Y-46375800D01*
X74644285Y-46375800D02*
X74691904Y-46328180D01*
X74691904Y-46328180D02*
X74739523Y-46232942D01*
X74739523Y-46232942D02*
X74739523Y-45423419D01*
X75168095Y-45518657D02*
X75215714Y-45471038D01*
X75215714Y-45471038D02*
X75310952Y-45423419D01*
X75310952Y-45423419D02*
X75549047Y-45423419D01*
X75549047Y-45423419D02*
X75644285Y-45471038D01*
X75644285Y-45471038D02*
X75691904Y-45518657D01*
X75691904Y-45518657D02*
X75739523Y-45613895D01*
X75739523Y-45613895D02*
X75739523Y-45709133D01*
X75739523Y-45709133D02*
X75691904Y-45851990D01*
X75691904Y-45851990D02*
X75120476Y-46423419D01*
X75120476Y-46423419D02*
X75739523Y-46423419D01*
X80313884Y-45338419D02*
X80313884Y-46147942D01*
X80313884Y-46147942D02*
X80361503Y-46243180D01*
X80361503Y-46243180D02*
X80409122Y-46290800D01*
X80409122Y-46290800D02*
X80504360Y-46338419D01*
X80504360Y-46338419D02*
X80694836Y-46338419D01*
X80694836Y-46338419D02*
X80790074Y-46290800D01*
X80790074Y-46290800D02*
X80837693Y-46243180D01*
X80837693Y-46243180D02*
X80885312Y-46147942D01*
X80885312Y-46147942D02*
X80885312Y-45338419D01*
X81313884Y-46290800D02*
X81456741Y-46338419D01*
X81456741Y-46338419D02*
X81694836Y-46338419D01*
X81694836Y-46338419D02*
X81790074Y-46290800D01*
X81790074Y-46290800D02*
X81837693Y-46243180D01*
X81837693Y-46243180D02*
X81885312Y-46147942D01*
X81885312Y-46147942D02*
X81885312Y-46052704D01*
X81885312Y-46052704D02*
X81837693Y-45957466D01*
X81837693Y-45957466D02*
X81790074Y-45909847D01*
X81790074Y-45909847D02*
X81694836Y-45862228D01*
X81694836Y-45862228D02*
X81504360Y-45814609D01*
X81504360Y-45814609D02*
X81409122Y-45766990D01*
X81409122Y-45766990D02*
X81361503Y-45719371D01*
X81361503Y-45719371D02*
X81313884Y-45624133D01*
X81313884Y-45624133D02*
X81313884Y-45528895D01*
X81313884Y-45528895D02*
X81361503Y-45433657D01*
X81361503Y-45433657D02*
X81409122Y-45386038D01*
X81409122Y-45386038D02*
X81504360Y-45338419D01*
X81504360Y-45338419D02*
X81742455Y-45338419D01*
X81742455Y-45338419D02*
X81885312Y-45386038D01*
X82647217Y-45814609D02*
X82790074Y-45862228D01*
X82790074Y-45862228D02*
X82837693Y-45909847D01*
X82837693Y-45909847D02*
X82885312Y-46005085D01*
X82885312Y-46005085D02*
X82885312Y-46147942D01*
X82885312Y-46147942D02*
X82837693Y-46243180D01*
X82837693Y-46243180D02*
X82790074Y-46290800D01*
X82790074Y-46290800D02*
X82694836Y-46338419D01*
X82694836Y-46338419D02*
X82313884Y-46338419D01*
X82313884Y-46338419D02*
X82313884Y-45338419D01*
X82313884Y-45338419D02*
X82647217Y-45338419D01*
X82647217Y-45338419D02*
X82742455Y-45386038D01*
X82742455Y-45386038D02*
X82790074Y-45433657D01*
X82790074Y-45433657D02*
X82837693Y-45528895D01*
X82837693Y-45528895D02*
X82837693Y-45624133D01*
X82837693Y-45624133D02*
X82790074Y-45719371D01*
X82790074Y-45719371D02*
X82742455Y-45766990D01*
X82742455Y-45766990D02*
X82647217Y-45814609D01*
X82647217Y-45814609D02*
X82313884Y-45814609D01*
D10*
X113373933Y-66468419D02*
X113040600Y-65992228D01*
X112802505Y-66468419D02*
X112802505Y-65468419D01*
X112802505Y-65468419D02*
X113183457Y-65468419D01*
X113183457Y-65468419D02*
X113278695Y-65516038D01*
X113278695Y-65516038D02*
X113326314Y-65563657D01*
X113326314Y-65563657D02*
X113373933Y-65658895D01*
X113373933Y-65658895D02*
X113373933Y-65801752D01*
X113373933Y-65801752D02*
X113326314Y-65896990D01*
X113326314Y-65896990D02*
X113278695Y-65944609D01*
X113278695Y-65944609D02*
X113183457Y-65992228D01*
X113183457Y-65992228D02*
X112802505Y-65992228D01*
X113707267Y-65468419D02*
X114326314Y-65468419D01*
X114326314Y-65468419D02*
X113992981Y-65849371D01*
X113992981Y-65849371D02*
X114135838Y-65849371D01*
X114135838Y-65849371D02*
X114231076Y-65896990D01*
X114231076Y-65896990D02*
X114278695Y-65944609D01*
X114278695Y-65944609D02*
X114326314Y-66039847D01*
X114326314Y-66039847D02*
X114326314Y-66277942D01*
X114326314Y-66277942D02*
X114278695Y-66373180D01*
X114278695Y-66373180D02*
X114231076Y-66420800D01*
X114231076Y-66420800D02*
X114135838Y-66468419D01*
X114135838Y-66468419D02*
X113850124Y-66468419D01*
X113850124Y-66468419D02*
X113754886Y-66420800D01*
X113754886Y-66420800D02*
X113707267Y-66373180D01*
X118199933Y-63422419D02*
X117866600Y-62946228D01*
X117628505Y-63422419D02*
X117628505Y-62422419D01*
X117628505Y-62422419D02*
X118009457Y-62422419D01*
X118009457Y-62422419D02*
X118104695Y-62470038D01*
X118104695Y-62470038D02*
X118152314Y-62517657D01*
X118152314Y-62517657D02*
X118199933Y-62612895D01*
X118199933Y-62612895D02*
X118199933Y-62755752D01*
X118199933Y-62755752D02*
X118152314Y-62850990D01*
X118152314Y-62850990D02*
X118104695Y-62898609D01*
X118104695Y-62898609D02*
X118009457Y-62946228D01*
X118009457Y-62946228D02*
X117628505Y-62946228D01*
X118580886Y-62517657D02*
X118628505Y-62470038D01*
X118628505Y-62470038D02*
X118723743Y-62422419D01*
X118723743Y-62422419D02*
X118961838Y-62422419D01*
X118961838Y-62422419D02*
X119057076Y-62470038D01*
X119057076Y-62470038D02*
X119104695Y-62517657D01*
X119104695Y-62517657D02*
X119152314Y-62612895D01*
X119152314Y-62612895D02*
X119152314Y-62708133D01*
X119152314Y-62708133D02*
X119104695Y-62850990D01*
X119104695Y-62850990D02*
X118533267Y-63422419D01*
X118533267Y-63422419D02*
X119152314Y-63422419D01*
X110238695Y-61910419D02*
X110238695Y-62719942D01*
X110238695Y-62719942D02*
X110286314Y-62815180D01*
X110286314Y-62815180D02*
X110333933Y-62862800D01*
X110333933Y-62862800D02*
X110429171Y-62910419D01*
X110429171Y-62910419D02*
X110619647Y-62910419D01*
X110619647Y-62910419D02*
X110714885Y-62862800D01*
X110714885Y-62862800D02*
X110762504Y-62815180D01*
X110762504Y-62815180D02*
X110810123Y-62719942D01*
X110810123Y-62719942D02*
X110810123Y-61910419D01*
X111191076Y-61910419D02*
X111810123Y-61910419D01*
X111810123Y-61910419D02*
X111476790Y-62291371D01*
X111476790Y-62291371D02*
X111619647Y-62291371D01*
X111619647Y-62291371D02*
X111714885Y-62338990D01*
X111714885Y-62338990D02*
X111762504Y-62386609D01*
X111762504Y-62386609D02*
X111810123Y-62481847D01*
X111810123Y-62481847D02*
X111810123Y-62719942D01*
X111810123Y-62719942D02*
X111762504Y-62815180D01*
X111762504Y-62815180D02*
X111714885Y-62862800D01*
X111714885Y-62862800D02*
X111619647Y-62910419D01*
X111619647Y-62910419D02*
X111333933Y-62910419D01*
X111333933Y-62910419D02*
X111238695Y-62862800D01*
X111238695Y-62862800D02*
X111191076Y-62815180D01*
X113371333Y-52396819D02*
X113038000Y-51920628D01*
X112799905Y-52396819D02*
X112799905Y-51396819D01*
X112799905Y-51396819D02*
X113180857Y-51396819D01*
X113180857Y-51396819D02*
X113276095Y-51444438D01*
X113276095Y-51444438D02*
X113323714Y-51492057D01*
X113323714Y-51492057D02*
X113371333Y-51587295D01*
X113371333Y-51587295D02*
X113371333Y-51730152D01*
X113371333Y-51730152D02*
X113323714Y-51825390D01*
X113323714Y-51825390D02*
X113276095Y-51873009D01*
X113276095Y-51873009D02*
X113180857Y-51920628D01*
X113180857Y-51920628D02*
X112799905Y-51920628D01*
X113704667Y-51396819D02*
X114323714Y-51396819D01*
X114323714Y-51396819D02*
X113990381Y-51777771D01*
X113990381Y-51777771D02*
X114133238Y-51777771D01*
X114133238Y-51777771D02*
X114228476Y-51825390D01*
X114228476Y-51825390D02*
X114276095Y-51873009D01*
X114276095Y-51873009D02*
X114323714Y-51968247D01*
X114323714Y-51968247D02*
X114323714Y-52206342D01*
X114323714Y-52206342D02*
X114276095Y-52301580D01*
X114276095Y-52301580D02*
X114228476Y-52349200D01*
X114228476Y-52349200D02*
X114133238Y-52396819D01*
X114133238Y-52396819D02*
X113847524Y-52396819D01*
X113847524Y-52396819D02*
X113752286Y-52349200D01*
X113752286Y-52349200D02*
X113704667Y-52301580D01*
X87402505Y-62246419D02*
X87402505Y-61246419D01*
X87402505Y-61246419D02*
X87640600Y-61246419D01*
X87640600Y-61246419D02*
X87783457Y-61294038D01*
X87783457Y-61294038D02*
X87878695Y-61389276D01*
X87878695Y-61389276D02*
X87926314Y-61484514D01*
X87926314Y-61484514D02*
X87973933Y-61674990D01*
X87973933Y-61674990D02*
X87973933Y-61817847D01*
X87973933Y-61817847D02*
X87926314Y-62008323D01*
X87926314Y-62008323D02*
X87878695Y-62103561D01*
X87878695Y-62103561D02*
X87783457Y-62198800D01*
X87783457Y-62198800D02*
X87640600Y-62246419D01*
X87640600Y-62246419D02*
X87402505Y-62246419D01*
X88926314Y-62246419D02*
X88354886Y-62246419D01*
X88640600Y-62246419D02*
X88640600Y-61246419D01*
X88640600Y-61246419D02*
X88545362Y-61389276D01*
X88545362Y-61389276D02*
X88450124Y-61484514D01*
X88450124Y-61484514D02*
X88354886Y-61532133D01*
X97523266Y-61780419D02*
X97523266Y-62494704D01*
X97523266Y-62494704D02*
X97475647Y-62637561D01*
X97475647Y-62637561D02*
X97380409Y-62732800D01*
X97380409Y-62732800D02*
X97237552Y-62780419D01*
X97237552Y-62780419D02*
X97142314Y-62780419D01*
X98523266Y-62780419D02*
X97951838Y-62780419D01*
X98237552Y-62780419D02*
X98237552Y-61780419D01*
X98237552Y-61780419D02*
X98142314Y-61923276D01*
X98142314Y-61923276D02*
X98047076Y-62018514D01*
X98047076Y-62018514D02*
X97951838Y-62066133D01*
X123305419Y-58746694D02*
X122305419Y-58746694D01*
X122305419Y-58746694D02*
X122305419Y-58508599D01*
X122305419Y-58508599D02*
X122353038Y-58365742D01*
X122353038Y-58365742D02*
X122448276Y-58270504D01*
X122448276Y-58270504D02*
X122543514Y-58222885D01*
X122543514Y-58222885D02*
X122733990Y-58175266D01*
X122733990Y-58175266D02*
X122876847Y-58175266D01*
X122876847Y-58175266D02*
X123067323Y-58222885D01*
X123067323Y-58222885D02*
X123162561Y-58270504D01*
X123162561Y-58270504D02*
X123257800Y-58365742D01*
X123257800Y-58365742D02*
X123305419Y-58508599D01*
X123305419Y-58508599D02*
X123305419Y-58746694D01*
X122305419Y-57841932D02*
X122305419Y-57222885D01*
X122305419Y-57222885D02*
X122686371Y-57556218D01*
X122686371Y-57556218D02*
X122686371Y-57413361D01*
X122686371Y-57413361D02*
X122733990Y-57318123D01*
X122733990Y-57318123D02*
X122781609Y-57270504D01*
X122781609Y-57270504D02*
X122876847Y-57222885D01*
X122876847Y-57222885D02*
X123114942Y-57222885D01*
X123114942Y-57222885D02*
X123210180Y-57270504D01*
X123210180Y-57270504D02*
X123257800Y-57318123D01*
X123257800Y-57318123D02*
X123305419Y-57413361D01*
X123305419Y-57413361D02*
X123305419Y-57699075D01*
X123305419Y-57699075D02*
X123257800Y-57794313D01*
X123257800Y-57794313D02*
X123210180Y-57841932D01*
X110284295Y-76007419D02*
X110284295Y-76816942D01*
X110284295Y-76816942D02*
X110331914Y-76912180D01*
X110331914Y-76912180D02*
X110379533Y-76959800D01*
X110379533Y-76959800D02*
X110474771Y-77007419D01*
X110474771Y-77007419D02*
X110665247Y-77007419D01*
X110665247Y-77007419D02*
X110760485Y-76959800D01*
X110760485Y-76959800D02*
X110808104Y-76912180D01*
X110808104Y-76912180D02*
X110855723Y-76816942D01*
X110855723Y-76816942D02*
X110855723Y-76007419D01*
X111236676Y-76007419D02*
X111855723Y-76007419D01*
X111855723Y-76007419D02*
X111522390Y-76388371D01*
X111522390Y-76388371D02*
X111665247Y-76388371D01*
X111665247Y-76388371D02*
X111760485Y-76435990D01*
X111760485Y-76435990D02*
X111808104Y-76483609D01*
X111808104Y-76483609D02*
X111855723Y-76578847D01*
X111855723Y-76578847D02*
X111855723Y-76816942D01*
X111855723Y-76816942D02*
X111808104Y-76912180D01*
X111808104Y-76912180D02*
X111760485Y-76959800D01*
X111760485Y-76959800D02*
X111665247Y-77007419D01*
X111665247Y-77007419D02*
X111379533Y-77007419D01*
X111379533Y-77007419D02*
X111284295Y-76959800D01*
X111284295Y-76959800D02*
X111236676Y-76912180D01*
X118248133Y-91591019D02*
X117914800Y-91114828D01*
X117676705Y-91591019D02*
X117676705Y-90591019D01*
X117676705Y-90591019D02*
X118057657Y-90591019D01*
X118057657Y-90591019D02*
X118152895Y-90638638D01*
X118152895Y-90638638D02*
X118200514Y-90686257D01*
X118200514Y-90686257D02*
X118248133Y-90781495D01*
X118248133Y-90781495D02*
X118248133Y-90924352D01*
X118248133Y-90924352D02*
X118200514Y-91019590D01*
X118200514Y-91019590D02*
X118152895Y-91067209D01*
X118152895Y-91067209D02*
X118057657Y-91114828D01*
X118057657Y-91114828D02*
X117676705Y-91114828D01*
X118629086Y-90686257D02*
X118676705Y-90638638D01*
X118676705Y-90638638D02*
X118771943Y-90591019D01*
X118771943Y-90591019D02*
X119010038Y-90591019D01*
X119010038Y-90591019D02*
X119105276Y-90638638D01*
X119105276Y-90638638D02*
X119152895Y-90686257D01*
X119152895Y-90686257D02*
X119200514Y-90781495D01*
X119200514Y-90781495D02*
X119200514Y-90876733D01*
X119200514Y-90876733D02*
X119152895Y-91019590D01*
X119152895Y-91019590D02*
X118581467Y-91591019D01*
X118581467Y-91591019D02*
X119200514Y-91591019D01*
X110286895Y-90079019D02*
X110286895Y-90888542D01*
X110286895Y-90888542D02*
X110334514Y-90983780D01*
X110334514Y-90983780D02*
X110382133Y-91031400D01*
X110382133Y-91031400D02*
X110477371Y-91079019D01*
X110477371Y-91079019D02*
X110667847Y-91079019D01*
X110667847Y-91079019D02*
X110763085Y-91031400D01*
X110763085Y-91031400D02*
X110810704Y-90983780D01*
X110810704Y-90983780D02*
X110858323Y-90888542D01*
X110858323Y-90888542D02*
X110858323Y-90079019D01*
X111239276Y-90079019D02*
X111858323Y-90079019D01*
X111858323Y-90079019D02*
X111524990Y-90459971D01*
X111524990Y-90459971D02*
X111667847Y-90459971D01*
X111667847Y-90459971D02*
X111763085Y-90507590D01*
X111763085Y-90507590D02*
X111810704Y-90555209D01*
X111810704Y-90555209D02*
X111858323Y-90650447D01*
X111858323Y-90650447D02*
X111858323Y-90888542D01*
X111858323Y-90888542D02*
X111810704Y-90983780D01*
X111810704Y-90983780D02*
X111763085Y-91031400D01*
X111763085Y-91031400D02*
X111667847Y-91079019D01*
X111667847Y-91079019D02*
X111382133Y-91079019D01*
X111382133Y-91079019D02*
X111286895Y-91031400D01*
X111286895Y-91031400D02*
X111239276Y-90983780D01*
D11*
X74218895Y-87663619D02*
X74218895Y-88473142D01*
X74218895Y-88473142D02*
X74266514Y-88568380D01*
X74266514Y-88568380D02*
X74314133Y-88616000D01*
X74314133Y-88616000D02*
X74409371Y-88663619D01*
X74409371Y-88663619D02*
X74599847Y-88663619D01*
X74599847Y-88663619D02*
X74695085Y-88616000D01*
X74695085Y-88616000D02*
X74742704Y-88568380D01*
X74742704Y-88568380D02*
X74790323Y-88473142D01*
X74790323Y-88473142D02*
X74790323Y-87663619D01*
X75218895Y-87758857D02*
X75266514Y-87711238D01*
X75266514Y-87711238D02*
X75361752Y-87663619D01*
X75361752Y-87663619D02*
X75599847Y-87663619D01*
X75599847Y-87663619D02*
X75695085Y-87711238D01*
X75695085Y-87711238D02*
X75742704Y-87758857D01*
X75742704Y-87758857D02*
X75790323Y-87854095D01*
X75790323Y-87854095D02*
X75790323Y-87949333D01*
X75790323Y-87949333D02*
X75742704Y-88092190D01*
X75742704Y-88092190D02*
X75171276Y-88663619D01*
X75171276Y-88663619D02*
X75790323Y-88663619D01*
X80364684Y-87578619D02*
X80364684Y-88388142D01*
X80364684Y-88388142D02*
X80412303Y-88483380D01*
X80412303Y-88483380D02*
X80459922Y-88531000D01*
X80459922Y-88531000D02*
X80555160Y-88578619D01*
X80555160Y-88578619D02*
X80745636Y-88578619D01*
X80745636Y-88578619D02*
X80840874Y-88531000D01*
X80840874Y-88531000D02*
X80888493Y-88483380D01*
X80888493Y-88483380D02*
X80936112Y-88388142D01*
X80936112Y-88388142D02*
X80936112Y-87578619D01*
X81364684Y-88531000D02*
X81507541Y-88578619D01*
X81507541Y-88578619D02*
X81745636Y-88578619D01*
X81745636Y-88578619D02*
X81840874Y-88531000D01*
X81840874Y-88531000D02*
X81888493Y-88483380D01*
X81888493Y-88483380D02*
X81936112Y-88388142D01*
X81936112Y-88388142D02*
X81936112Y-88292904D01*
X81936112Y-88292904D02*
X81888493Y-88197666D01*
X81888493Y-88197666D02*
X81840874Y-88150047D01*
X81840874Y-88150047D02*
X81745636Y-88102428D01*
X81745636Y-88102428D02*
X81555160Y-88054809D01*
X81555160Y-88054809D02*
X81459922Y-88007190D01*
X81459922Y-88007190D02*
X81412303Y-87959571D01*
X81412303Y-87959571D02*
X81364684Y-87864333D01*
X81364684Y-87864333D02*
X81364684Y-87769095D01*
X81364684Y-87769095D02*
X81412303Y-87673857D01*
X81412303Y-87673857D02*
X81459922Y-87626238D01*
X81459922Y-87626238D02*
X81555160Y-87578619D01*
X81555160Y-87578619D02*
X81793255Y-87578619D01*
X81793255Y-87578619D02*
X81936112Y-87626238D01*
X82698017Y-88054809D02*
X82840874Y-88102428D01*
X82840874Y-88102428D02*
X82888493Y-88150047D01*
X82888493Y-88150047D02*
X82936112Y-88245285D01*
X82936112Y-88245285D02*
X82936112Y-88388142D01*
X82936112Y-88388142D02*
X82888493Y-88483380D01*
X82888493Y-88483380D02*
X82840874Y-88531000D01*
X82840874Y-88531000D02*
X82745636Y-88578619D01*
X82745636Y-88578619D02*
X82364684Y-88578619D01*
X82364684Y-88578619D02*
X82364684Y-87578619D01*
X82364684Y-87578619D02*
X82698017Y-87578619D01*
X82698017Y-87578619D02*
X82793255Y-87626238D01*
X82793255Y-87626238D02*
X82840874Y-87673857D01*
X82840874Y-87673857D02*
X82888493Y-87769095D01*
X82888493Y-87769095D02*
X82888493Y-87864333D01*
X82888493Y-87864333D02*
X82840874Y-87959571D01*
X82840874Y-87959571D02*
X82793255Y-88007190D01*
X82793255Y-88007190D02*
X82698017Y-88054809D01*
X82698017Y-88054809D02*
X82364684Y-88054809D01*
D12*
%TO.C,R1*%
X99289664Y-66114600D02*
X98835536Y-66114600D01*
X99289664Y-64644600D02*
X98835536Y-64644600D01*
D10*
%TO.C,U3*%
X113748000Y-47459000D02*
X113748000Y-47254000D01*
X113748000Y-47459000D02*
X108248000Y-47459000D01*
X113748000Y-47254000D02*
X115498000Y-47254000D01*
X113748000Y-41949000D02*
X113748000Y-42249000D01*
X113748000Y-41949000D02*
X108248000Y-41949000D01*
X108248000Y-47459000D02*
X108248000Y-47159000D01*
X108248000Y-41949000D02*
X108248000Y-42249000D01*
D12*
%TO.C,R4*%
X99289664Y-64082600D02*
X98835536Y-64082600D01*
X99289664Y-62612600D02*
X98835536Y-62612600D01*
%TO.C,J1*%
X103204000Y-47304000D02*
X97454000Y-47304000D01*
X103204000Y-41304000D02*
X103204000Y-47304000D01*
X101854000Y-42414000D02*
X96774000Y-42414000D01*
X101854000Y-41404000D02*
X101854000Y-42414000D01*
X96774000Y-42414000D02*
X96774000Y-41404000D01*
X96104000Y-47254000D02*
X92904000Y-47254000D01*
X92904000Y-47254000D02*
X92904000Y-41304000D01*
X92904000Y-41304000D02*
X103204000Y-41304000D01*
%TO.C,D1*%
X90548800Y-88960200D02*
X90548800Y-86960200D01*
X90548800Y-88960200D02*
X86538800Y-88960200D01*
X90548800Y-86960200D02*
X86538800Y-86960200D01*
%TO.C,R3*%
X113815864Y-93267200D02*
X113361736Y-93267200D01*
X113815864Y-91797200D02*
X113361736Y-91797200D01*
%TO.C,R2*%
X118136936Y-49811000D02*
X118591064Y-49811000D01*
X118136936Y-51281000D02*
X118591064Y-51281000D01*
%TO.C,D1*%
X90546200Y-74888600D02*
X90546200Y-72888600D01*
X90546200Y-74888600D02*
X86536200Y-74888600D01*
X90546200Y-72888600D02*
X86536200Y-72888600D01*
%TO.C,J2*%
X124148600Y-66221600D02*
X124148600Y-60471600D01*
X130148600Y-66221600D02*
X124148600Y-66221600D01*
X129038600Y-64871600D02*
X129038600Y-59791600D01*
X130048600Y-64871600D02*
X129038600Y-64871600D01*
X129038600Y-59791600D02*
X130048600Y-59791600D01*
X124198600Y-59121600D02*
X124198600Y-55921600D01*
X124198600Y-55921600D02*
X130148600Y-55921600D01*
X130148600Y-55921600D02*
X130148600Y-66221600D01*
%TO.C,R3*%
X113813264Y-79195600D02*
X113359136Y-79195600D01*
X113813264Y-77725600D02*
X113359136Y-77725600D01*
%TO.C,D2*%
X92070200Y-79460600D02*
X92070200Y-77460600D01*
X92070200Y-79460600D02*
X88060200Y-79460600D01*
X92070200Y-77460600D02*
X88060200Y-77460600D01*
X92072800Y-93532200D02*
X92072800Y-91532200D01*
X92072800Y-93532200D02*
X88062800Y-93532200D01*
X92072800Y-91532200D02*
X88062800Y-91532200D01*
%TO.C,C1*%
X88851852Y-58161600D02*
X87429348Y-58161600D01*
X88851852Y-56341600D02*
X87429348Y-56341600D01*
%TO.C,D3*%
X121124000Y-42377000D02*
X120968000Y-42377000D01*
X118808000Y-42377000D02*
X118652000Y-42377000D01*
X120966608Y-45609334D02*
G75*
G03*
X121123515Y-42377001I-1078608J1672334D01*
G01*
X120967836Y-44978129D02*
G75*
G03*
X120967999Y-42896040I-1079836J1041129D01*
G01*
X118808001Y-42896040D02*
G75*
G03*
X118808164Y-44978129I1079999J-1040960D01*
G01*
X118652485Y-42377001D02*
G75*
G03*
X118809392Y-45609334I1235515J-1559999D01*
G01*
%TO.C,R1*%
X99335264Y-80211600D02*
X98881136Y-80211600D01*
X99335264Y-78741600D02*
X98881136Y-78741600D01*
%TO.C,C1*%
X88900052Y-86330200D02*
X87477548Y-86330200D01*
X88900052Y-84510200D02*
X87477548Y-84510200D01*
%TO.C,D3*%
X121174800Y-84617200D02*
X121018800Y-84617200D01*
X118858800Y-84617200D02*
X118702800Y-84617200D01*
X121017408Y-87849534D02*
G75*
G03*
X121174315Y-84617201I-1078608J1672334D01*
G01*
X121018636Y-87218329D02*
G75*
G03*
X121018799Y-85136240I-1079836J1041129D01*
G01*
X118858801Y-85136240D02*
G75*
G03*
X118858964Y-87218329I1079999J-1040960D01*
G01*
X118703285Y-84617201D02*
G75*
G03*
X118860192Y-87849534I1235515J-1559999D01*
G01*
%TO.C,J1*%
X103252200Y-75472600D02*
X97502200Y-75472600D01*
X103252200Y-69472600D02*
X103252200Y-75472600D01*
X101902200Y-70582600D02*
X96822200Y-70582600D01*
X101902200Y-69572600D02*
X101902200Y-70582600D01*
X96822200Y-70582600D02*
X96822200Y-69572600D01*
X96152200Y-75422600D02*
X92952200Y-75422600D01*
X92952200Y-75422600D02*
X92952200Y-69472600D01*
X92952200Y-69472600D02*
X103252200Y-69472600D01*
%TO.C,J2*%
X124194200Y-80318600D02*
X124194200Y-74568600D01*
X130194200Y-80318600D02*
X124194200Y-80318600D01*
X129084200Y-78968600D02*
X129084200Y-73888600D01*
X130094200Y-78968600D02*
X129084200Y-78968600D01*
X129084200Y-73888600D02*
X130094200Y-73888600D01*
X124244200Y-73218600D02*
X124244200Y-70018600D01*
X124244200Y-70018600D02*
X130194200Y-70018600D01*
X130194200Y-70018600D02*
X130194200Y-80318600D01*
X124146000Y-52150000D02*
X124146000Y-46400000D01*
X130146000Y-52150000D02*
X124146000Y-52150000D01*
X129036000Y-50800000D02*
X129036000Y-45720000D01*
X130046000Y-50800000D02*
X129036000Y-50800000D01*
X129036000Y-45720000D02*
X130046000Y-45720000D01*
X124196000Y-45050000D02*
X124196000Y-41850000D01*
X124196000Y-41850000D02*
X130146000Y-41850000D01*
X130146000Y-41850000D02*
X130146000Y-52150000D01*
%TO.C,D3*%
X121172200Y-70545600D02*
X121016200Y-70545600D01*
X118856200Y-70545600D02*
X118700200Y-70545600D01*
X121014808Y-73777934D02*
G75*
G03*
X121171715Y-70545601I-1078608J1672334D01*
G01*
X121016036Y-73146729D02*
G75*
G03*
X121016199Y-71064640I-1079836J1041129D01*
G01*
X118856201Y-71064640D02*
G75*
G03*
X118856364Y-73146729I1079999J-1040960D01*
G01*
X118700685Y-70545601D02*
G75*
G03*
X118857592Y-73777934I1235515J-1559999D01*
G01*
%TO.C,C1*%
X88897452Y-72258600D02*
X87474948Y-72258600D01*
X88897452Y-70438600D02*
X87474948Y-70438600D01*
%TO.C,D2*%
X92024600Y-65363600D02*
X92024600Y-63363600D01*
X92024600Y-65363600D02*
X88014600Y-65363600D01*
X92024600Y-63363600D02*
X88014600Y-63363600D01*
%TO.C,C1*%
X88849252Y-44090000D02*
X87426748Y-44090000D01*
X88849252Y-42270000D02*
X87426748Y-42270000D01*
%TO.C,R2*%
X118185136Y-77979600D02*
X118639264Y-77979600D01*
X118185136Y-79449600D02*
X118639264Y-79449600D01*
%TO.C,R4*%
X99335264Y-78179600D02*
X98881136Y-78179600D01*
X99335264Y-76709600D02*
X98881136Y-76709600D01*
%TO.C,J2*%
X124196800Y-94390200D02*
X124196800Y-88640200D01*
X130196800Y-94390200D02*
X124196800Y-94390200D01*
X129086800Y-93040200D02*
X129086800Y-87960200D01*
X130096800Y-93040200D02*
X129086800Y-93040200D01*
X129086800Y-87960200D02*
X130096800Y-87960200D01*
X124246800Y-87290200D02*
X124246800Y-84090200D01*
X124246800Y-84090200D02*
X130196800Y-84090200D01*
X130196800Y-84090200D02*
X130196800Y-94390200D01*
%TO.C,J1*%
X103254800Y-89544200D02*
X97504800Y-89544200D01*
X103254800Y-83544200D02*
X103254800Y-89544200D01*
X101904800Y-84654200D02*
X96824800Y-84654200D01*
X101904800Y-83644200D02*
X101904800Y-84654200D01*
X96824800Y-84654200D02*
X96824800Y-83644200D01*
X96154800Y-89494200D02*
X92954800Y-89494200D01*
X92954800Y-89494200D02*
X92954800Y-83544200D01*
X92954800Y-83544200D02*
X103254800Y-83544200D01*
%TO.C,R4*%
X99337864Y-92251200D02*
X98883736Y-92251200D01*
X99337864Y-90781200D02*
X98883736Y-90781200D01*
%TO.C,D1*%
X90498000Y-46720000D02*
X90498000Y-44720000D01*
X90498000Y-46720000D02*
X86488000Y-46720000D01*
X90498000Y-44720000D02*
X86488000Y-44720000D01*
%TO.C,R1*%
X99337864Y-94283200D02*
X98883736Y-94283200D01*
X99337864Y-92813200D02*
X98883736Y-92813200D01*
X99287064Y-52043000D02*
X98832936Y-52043000D01*
X99287064Y-50573000D02*
X98832936Y-50573000D01*
%TO.C,D2*%
X92022000Y-51292000D02*
X92022000Y-49292000D01*
X92022000Y-51292000D02*
X88012000Y-51292000D01*
X92022000Y-49292000D02*
X88012000Y-49292000D01*
%TO.C,R4*%
X99287064Y-50011000D02*
X98832936Y-50011000D01*
X99287064Y-48541000D02*
X98832936Y-48541000D01*
%TO.C,R3*%
X113767664Y-65098600D02*
X113313536Y-65098600D01*
X113767664Y-63628600D02*
X113313536Y-63628600D01*
%TO.C,R2*%
X118139536Y-63882600D02*
X118593664Y-63882600D01*
X118139536Y-65352600D02*
X118593664Y-65352600D01*
D10*
%TO.C,U3*%
X113750600Y-61530600D02*
X113750600Y-61325600D01*
X113750600Y-61530600D02*
X108250600Y-61530600D01*
X113750600Y-61325600D02*
X115500600Y-61325600D01*
X113750600Y-56020600D02*
X113750600Y-56320600D01*
X113750600Y-56020600D02*
X108250600Y-56020600D01*
X108250600Y-61530600D02*
X108250600Y-61230600D01*
X108250600Y-56020600D02*
X108250600Y-56320600D01*
D12*
%TO.C,R3*%
X113765064Y-51027000D02*
X113310936Y-51027000D01*
X113765064Y-49557000D02*
X113310936Y-49557000D01*
%TO.C,D1*%
X90500600Y-60791600D02*
X90500600Y-58791600D01*
X90500600Y-60791600D02*
X86490600Y-60791600D01*
X90500600Y-58791600D02*
X86490600Y-58791600D01*
%TO.C,J1*%
X103206600Y-61375600D02*
X97456600Y-61375600D01*
X103206600Y-55375600D02*
X103206600Y-61375600D01*
X101856600Y-56485600D02*
X96776600Y-56485600D01*
X101856600Y-55475600D02*
X101856600Y-56485600D01*
X96776600Y-56485600D02*
X96776600Y-55475600D01*
X96106600Y-61325600D02*
X92906600Y-61325600D01*
X92906600Y-61325600D02*
X92906600Y-55375600D01*
X92906600Y-55375600D02*
X103206600Y-55375600D01*
%TO.C,D3*%
X121126600Y-56448600D02*
X120970600Y-56448600D01*
X118810600Y-56448600D02*
X118654600Y-56448600D01*
X120969208Y-59680934D02*
G75*
G03*
X121126115Y-56448601I-1078608J1672334D01*
G01*
X120970436Y-59049729D02*
G75*
G03*
X120970599Y-56967640I-1079836J1041129D01*
G01*
X118810601Y-56967640D02*
G75*
G03*
X118810764Y-59049729I1079999J-1040960D01*
G01*
X118655085Y-56448601D02*
G75*
G03*
X118811992Y-59680934I1235515J-1559999D01*
G01*
D10*
%TO.C,U3*%
X113796200Y-75627600D02*
X113796200Y-75422600D01*
X113796200Y-75627600D02*
X108296200Y-75627600D01*
X113796200Y-75422600D02*
X115546200Y-75422600D01*
X113796200Y-70117600D02*
X113796200Y-70417600D01*
X113796200Y-70117600D02*
X108296200Y-70117600D01*
X108296200Y-75627600D02*
X108296200Y-75327600D01*
X108296200Y-70117600D02*
X108296200Y-70417600D01*
D12*
%TO.C,R2*%
X118187736Y-92051200D02*
X118641864Y-92051200D01*
X118187736Y-93521200D02*
X118641864Y-93521200D01*
D10*
%TO.C,U3*%
X113798800Y-89699200D02*
X113798800Y-89494200D01*
X113798800Y-89699200D02*
X108298800Y-89699200D01*
X113798800Y-89494200D02*
X115548800Y-89494200D01*
X113798800Y-84189200D02*
X113798800Y-84489200D01*
X113798800Y-84189200D02*
X108298800Y-84189200D01*
X108298800Y-89699200D02*
X108298800Y-89399200D01*
X108298800Y-84189200D02*
X108298800Y-84489200D01*
%TD*%
M02*
