%TF.GenerationSoftware,KiCad,Pcbnew,7.0.9*%
%TF.CreationDate,2023-12-25T23:00:34+05:45*%
%TF.ProjectId,Attiny85_USB_panel,41747469-6e79-4383-955f-5553425f7061,rev?*%
%TF.SameCoordinates,Original*%
%TF.FileFunction,Copper,L2,Bot*%
%TF.FilePolarity,Positive*%
%FSLAX46Y46*%
G04 Gerber Fmt 4.6, Leading zero omitted, Abs format (unit mm)*
G04 Created by KiCad (PCBNEW 7.0.9) date 2023-12-25 23:00:34*
%MOMM*%
%LPD*%
G01*
G04 APERTURE LIST*
%TA.AperFunction,ComponentPad*%
%ADD10R,1.730000X2.030000*%
%TD*%
%TA.AperFunction,ComponentPad*%
%ADD11O,1.730000X2.030000*%
%TD*%
%TA.AperFunction,ComponentPad*%
%ADD12R,2.030000X1.730000*%
%TD*%
%TA.AperFunction,ComponentPad*%
%ADD13O,2.030000X1.730000*%
%TD*%
%TA.AperFunction,ComponentPad*%
%ADD14R,1.800000X1.800000*%
%TD*%
%TA.AperFunction,ComponentPad*%
%ADD15C,1.800000*%
%TD*%
%TA.AperFunction,ViaPad*%
%ADD16C,0.800000*%
%TD*%
%TA.AperFunction,Conductor*%
%ADD17C,0.250000*%
%TD*%
G04 APERTURE END LIST*
D10*
%TO.P,J1,1,Pin_1*%
%TO.N,Net-(J1-Pin_1)*%
X101854000Y-44704000D03*
D11*
%TO.P,J1,2,Pin_2*%
%TO.N,Net-(J1-Pin_2)*%
X99314000Y-44704000D03*
%TO.P,J1,3,Pin_3*%
%TO.N,Net-(J1-Pin_3)*%
X96774000Y-44704000D03*
%TO.P,J1,4,Pin_4*%
%TO.N,+5V*%
X94234000Y-44704000D03*
%TD*%
D12*
%TO.P,J2,1,Pin_1*%
%TO.N,Net-(J2-Pin_1)*%
X126748600Y-64871600D03*
D13*
%TO.P,J2,2,Pin_2*%
%TO.N,Net-(J2-Pin_2)*%
X126748600Y-62331600D03*
%TO.P,J2,3,Pin_3*%
%TO.N,Net-(J2-Pin_3)*%
X126748600Y-59791600D03*
%TO.P,J2,4,Pin_4*%
%TO.N,GND*%
X126748600Y-57251600D03*
%TD*%
D14*
%TO.P,D3,1,K*%
%TO.N,GND*%
X119888000Y-42667000D03*
D15*
%TO.P,D3,2,A*%
%TO.N,Net-(D3-A)*%
X119888000Y-45207000D03*
%TD*%
D14*
%TO.P,D3,1,K*%
%TO.N,GND*%
X119938800Y-84907200D03*
D15*
%TO.P,D3,2,A*%
%TO.N,Net-(D3-A)*%
X119938800Y-87447200D03*
%TD*%
D10*
%TO.P,J1,1,Pin_1*%
%TO.N,Net-(J1-Pin_1)*%
X101902200Y-72872600D03*
D11*
%TO.P,J1,2,Pin_2*%
%TO.N,Net-(J1-Pin_2)*%
X99362200Y-72872600D03*
%TO.P,J1,3,Pin_3*%
%TO.N,Net-(J1-Pin_3)*%
X96822200Y-72872600D03*
%TO.P,J1,4,Pin_4*%
%TO.N,+5V*%
X94282200Y-72872600D03*
%TD*%
D12*
%TO.P,J2,1,Pin_1*%
%TO.N,Net-(J2-Pin_1)*%
X126794200Y-78968600D03*
D13*
%TO.P,J2,2,Pin_2*%
%TO.N,Net-(J2-Pin_2)*%
X126794200Y-76428600D03*
%TO.P,J2,3,Pin_3*%
%TO.N,Net-(J2-Pin_3)*%
X126794200Y-73888600D03*
%TO.P,J2,4,Pin_4*%
%TO.N,GND*%
X126794200Y-71348600D03*
%TD*%
D12*
%TO.P,J2,1,Pin_1*%
%TO.N,Net-(J2-Pin_1)*%
X126746000Y-50800000D03*
D13*
%TO.P,J2,2,Pin_2*%
%TO.N,Net-(J2-Pin_2)*%
X126746000Y-48260000D03*
%TO.P,J2,3,Pin_3*%
%TO.N,Net-(J2-Pin_3)*%
X126746000Y-45720000D03*
%TO.P,J2,4,Pin_4*%
%TO.N,GND*%
X126746000Y-43180000D03*
%TD*%
D14*
%TO.P,D3,1,K*%
%TO.N,GND*%
X119936200Y-70835600D03*
D15*
%TO.P,D3,2,A*%
%TO.N,Net-(D3-A)*%
X119936200Y-73375600D03*
%TD*%
D12*
%TO.P,J2,1,Pin_1*%
%TO.N,Net-(J2-Pin_1)*%
X126796800Y-93040200D03*
D13*
%TO.P,J2,2,Pin_2*%
%TO.N,Net-(J2-Pin_2)*%
X126796800Y-90500200D03*
%TO.P,J2,3,Pin_3*%
%TO.N,Net-(J2-Pin_3)*%
X126796800Y-87960200D03*
%TO.P,J2,4,Pin_4*%
%TO.N,GND*%
X126796800Y-85420200D03*
%TD*%
D10*
%TO.P,J1,1,Pin_1*%
%TO.N,Net-(J1-Pin_1)*%
X101904800Y-86944200D03*
D11*
%TO.P,J1,2,Pin_2*%
%TO.N,Net-(J1-Pin_2)*%
X99364800Y-86944200D03*
%TO.P,J1,3,Pin_3*%
%TO.N,Net-(J1-Pin_3)*%
X96824800Y-86944200D03*
%TO.P,J1,4,Pin_4*%
%TO.N,+5V*%
X94284800Y-86944200D03*
%TD*%
D10*
%TO.P,J1,1,Pin_1*%
%TO.N,Net-(J1-Pin_1)*%
X101856600Y-58775600D03*
D11*
%TO.P,J1,2,Pin_2*%
%TO.N,Net-(J1-Pin_2)*%
X99316600Y-58775600D03*
%TO.P,J1,3,Pin_3*%
%TO.N,Net-(J1-Pin_3)*%
X96776600Y-58775600D03*
%TO.P,J1,4,Pin_4*%
%TO.N,+5V*%
X94236600Y-58775600D03*
%TD*%
D14*
%TO.P,D3,1,K*%
%TO.N,GND*%
X119890600Y-56738600D03*
D15*
%TO.P,D3,2,A*%
%TO.N,Net-(D3-A)*%
X119890600Y-59278600D03*
%TD*%
D16*
%TO.N,GND*%
X85854600Y-66141600D03*
X84632800Y-86690200D03*
X84582000Y-44450000D03*
X85900200Y-80238600D03*
X85852000Y-52070000D03*
X84584600Y-58521600D03*
X84630200Y-72618600D03*
X85902800Y-94310200D03*
%TO.N,Net-(D1-K)*%
X95758000Y-49276000D03*
X95806200Y-77444600D03*
X110744000Y-50292000D03*
X95808800Y-91516200D03*
X110746600Y-64363600D03*
X110794800Y-92532200D03*
X110792200Y-78460600D03*
X95760600Y-63347600D03*
%TO.N,Net-(J1-Pin_2)*%
X117396200Y-76682600D03*
X117350600Y-62585600D03*
X117398800Y-90754200D03*
X117348000Y-48514000D03*
X109476600Y-58267600D03*
X109524800Y-86436200D03*
X109522200Y-72364600D03*
X109474000Y-44196000D03*
%TD*%
D17*
%TO.N,GND*%
X131574600Y-55473600D02*
X126748600Y-55473600D01*
X131620200Y-80238600D02*
X131620200Y-69570600D01*
X84632800Y-93040200D02*
X84632800Y-86690200D01*
X84630200Y-78968600D02*
X84630200Y-72618600D01*
X85852000Y-52070000D02*
X84582000Y-50800000D01*
X85854600Y-66141600D02*
X84584600Y-64871600D01*
X126796800Y-83642200D02*
X126796800Y-85420200D01*
X85900200Y-80238600D02*
X131620200Y-80238600D01*
X131622800Y-83642200D02*
X126796800Y-83642200D01*
X131572000Y-52070000D02*
X131572000Y-41402000D01*
X119936200Y-69570600D02*
X119936200Y-70835600D01*
X126746000Y-41402000D02*
X126746000Y-43180000D01*
X84582000Y-50800000D02*
X84582000Y-44450000D01*
X131574600Y-66141600D02*
X131574600Y-55473600D01*
X126796800Y-83642200D02*
X119938800Y-83642200D01*
X126794200Y-69570600D02*
X126794200Y-71348600D01*
X126794200Y-69570600D02*
X119936200Y-69570600D01*
X126748600Y-55473600D02*
X126748600Y-57251600D01*
X131572000Y-41402000D02*
X126746000Y-41402000D01*
X119890600Y-55473600D02*
X119890600Y-56738600D01*
X131620200Y-69570600D02*
X126794200Y-69570600D01*
X119888000Y-41402000D02*
X119888000Y-42667000D01*
X85854600Y-66141600D02*
X131574600Y-66141600D01*
X84584600Y-64871600D02*
X84584600Y-58521600D01*
X126748600Y-55473600D02*
X119890600Y-55473600D01*
X126746000Y-41402000D02*
X119888000Y-41402000D01*
X131622800Y-94310200D02*
X131622800Y-83642200D01*
X85902800Y-94310200D02*
X131622800Y-94310200D01*
X85900200Y-80238600D02*
X84630200Y-78968600D01*
X85902800Y-94310200D02*
X84632800Y-93040200D01*
X119938800Y-83642200D02*
X119938800Y-84907200D01*
X85852000Y-52070000D02*
X131572000Y-52070000D01*
%TO.N,Net-(D1-K)*%
X95758000Y-49276000D02*
X96774000Y-50292000D01*
X96774000Y-50292000D02*
X110744000Y-50292000D01*
X95760600Y-63347600D02*
X96776600Y-64363600D01*
X96822200Y-78460600D02*
X110792200Y-78460600D01*
X96824800Y-92532200D02*
X110794800Y-92532200D01*
X96776600Y-64363600D02*
X110746600Y-64363600D01*
X95808800Y-91516200D02*
X96824800Y-92532200D01*
X95806200Y-77444600D02*
X96822200Y-78460600D01*
%TO.N,Net-(J1-Pin_2)*%
X109476600Y-58267600D02*
X110238600Y-59029600D01*
X109524800Y-86436200D02*
X110286800Y-87198200D01*
X110286800Y-87198200D02*
X110286800Y-90754200D01*
X110284200Y-76682600D02*
X117396200Y-76682600D01*
X110238600Y-59029600D02*
X110238600Y-62585600D01*
X110284200Y-73126600D02*
X110284200Y-76682600D01*
X110236000Y-44958000D02*
X110236000Y-48514000D01*
X110236000Y-48514000D02*
X117348000Y-48514000D01*
X110238600Y-62585600D02*
X117350600Y-62585600D01*
X109474000Y-44196000D02*
X110236000Y-44958000D01*
X110286800Y-90754200D02*
X117398800Y-90754200D01*
X109522200Y-72364600D02*
X110284200Y-73126600D01*
%TD*%
M02*
