%TF.GenerationSoftware,KiCad,Pcbnew,7.0.9*%
%TF.CreationDate,2023-12-25T23:00:34+05:45*%
%TF.ProjectId,Attiny85_USB_panel,41747469-6e79-4383-955f-5553425f7061,rev?*%
%TF.SameCoordinates,Original*%
%TF.FileFunction,Paste,Top*%
%TF.FilePolarity,Positive*%
%FSLAX46Y46*%
G04 Gerber Fmt 4.6, Leading zero omitted, Abs format (unit mm)*
G04 Created by KiCad (PCBNEW 7.0.9) date 2023-12-25 23:00:34*
%MOMM*%
%LPD*%
G01*
G04 APERTURE LIST*
G04 Aperture macros list*
%AMRoundRect*
0 Rectangle with rounded corners*
0 $1 Rounding radius*
0 $2 $3 $4 $5 $6 $7 $8 $9 X,Y pos of 4 corners*
0 Add a 4 corners polygon primitive as box body*
4,1,4,$2,$3,$4,$5,$6,$7,$8,$9,$2,$3,0*
0 Add four circle primitives for the rounded corners*
1,1,$1+$1,$2,$3*
1,1,$1+$1,$4,$5*
1,1,$1+$1,$6,$7*
1,1,$1+$1,$8,$9*
0 Add four rect primitives between the rounded corners*
20,1,$1+$1,$2,$3,$4,$5,0*
20,1,$1+$1,$4,$5,$6,$7,0*
20,1,$1+$1,$6,$7,$8,$9,0*
20,1,$1+$1,$8,$9,$2,$3,0*%
G04 Aperture macros list end*
%ADD10RoundRect,0.250000X0.350000X0.450000X-0.350000X0.450000X-0.350000X-0.450000X0.350000X-0.450000X0*%
%ADD11R,1.700000X0.650000*%
%ADD12RoundRect,0.225000X0.225000X0.375000X-0.225000X0.375000X-0.225000X-0.375000X0.225000X-0.375000X0*%
%ADD13RoundRect,0.250000X-0.350000X-0.450000X0.350000X-0.450000X0.350000X0.450000X-0.350000X0.450000X0*%
%ADD14RoundRect,0.250000X0.412500X0.650000X-0.412500X0.650000X-0.412500X-0.650000X0.412500X-0.650000X0*%
%ADD15RoundRect,0.500000X-3.000000X-0.500000X3.000000X-0.500000X3.000000X0.500000X-3.000000X0.500000X0*%
%ADD16RoundRect,0.375000X-2.625000X-0.375000X2.625000X-0.375000X2.625000X0.375000X-2.625000X0.375000X0*%
G04 APERTURE END LIST*
D10*
%TO.C,R1*%
X100062600Y-65379600D03*
X98062600Y-65379600D03*
%TD*%
D11*
%TO.C,U3*%
X114648000Y-46609000D03*
X114648000Y-45339000D03*
X114648000Y-44069000D03*
X114648000Y-42799000D03*
X107348000Y-42799000D03*
X107348000Y-44069000D03*
X107348000Y-45339000D03*
X107348000Y-46609000D03*
%TD*%
D10*
%TO.C,R4*%
X100062600Y-63347600D03*
X98062600Y-63347600D03*
%TD*%
D12*
%TO.C,D1*%
X89838800Y-87960200D03*
X86538800Y-87960200D03*
%TD*%
D10*
%TO.C,R3*%
X114588800Y-92532200D03*
X112588800Y-92532200D03*
%TD*%
D13*
%TO.C,R2*%
X117364000Y-50546000D03*
X119364000Y-50546000D03*
%TD*%
D12*
%TO.C,D1*%
X89836200Y-73888600D03*
X86536200Y-73888600D03*
%TD*%
D10*
%TO.C,R3*%
X114586200Y-78460600D03*
X112586200Y-78460600D03*
%TD*%
D12*
%TO.C,D2*%
X91360200Y-78460600D03*
X88060200Y-78460600D03*
%TD*%
%TO.C,D2*%
X91362800Y-92532200D03*
X88062800Y-92532200D03*
%TD*%
D14*
%TO.C,C1*%
X89703100Y-57251600D03*
X86578100Y-57251600D03*
%TD*%
D10*
%TO.C,R1*%
X100108200Y-79476600D03*
X98108200Y-79476600D03*
%TD*%
D14*
%TO.C,C1*%
X89751300Y-85420200D03*
X86626300Y-85420200D03*
%TD*%
%TO.C,C1*%
X89748700Y-71348600D03*
X86623700Y-71348600D03*
%TD*%
D12*
%TO.C,D2*%
X91314600Y-64363600D03*
X88014600Y-64363600D03*
%TD*%
D14*
%TO.C,C1*%
X89700500Y-43180000D03*
X86575500Y-43180000D03*
%TD*%
D13*
%TO.C,R2*%
X117412200Y-78714600D03*
X119412200Y-78714600D03*
%TD*%
D10*
%TO.C,R4*%
X100108200Y-77444600D03*
X98108200Y-77444600D03*
%TD*%
D15*
%TO.C,U2*%
X74978200Y-70884600D03*
D16*
X74978200Y-73634600D03*
X74978200Y-75634600D03*
D15*
X74978200Y-78384600D03*
%TD*%
D10*
%TO.C,R4*%
X100110800Y-91516200D03*
X98110800Y-91516200D03*
%TD*%
D12*
%TO.C,D1*%
X89788000Y-45720000D03*
X86488000Y-45720000D03*
%TD*%
D10*
%TO.C,R1*%
X100110800Y-93548200D03*
X98110800Y-93548200D03*
%TD*%
%TO.C,R1*%
X100060000Y-51308000D03*
X98060000Y-51308000D03*
%TD*%
D12*
%TO.C,D2*%
X91312000Y-50292000D03*
X88012000Y-50292000D03*
%TD*%
D10*
%TO.C,R4*%
X100060000Y-49276000D03*
X98060000Y-49276000D03*
%TD*%
D15*
%TO.C,U2*%
X74932600Y-56787600D03*
D16*
X74932600Y-59537600D03*
X74932600Y-61537600D03*
D15*
X74932600Y-64287600D03*
%TD*%
%TO.C,U2*%
X74930000Y-42716000D03*
D16*
X74930000Y-45466000D03*
X74930000Y-47466000D03*
D15*
X74930000Y-50216000D03*
%TD*%
D10*
%TO.C,R3*%
X114540600Y-64363600D03*
X112540600Y-64363600D03*
%TD*%
D13*
%TO.C,R2*%
X117366600Y-64617600D03*
X119366600Y-64617600D03*
%TD*%
D11*
%TO.C,U3*%
X114650600Y-60680600D03*
X114650600Y-59410600D03*
X114650600Y-58140600D03*
X114650600Y-56870600D03*
X107350600Y-56870600D03*
X107350600Y-58140600D03*
X107350600Y-59410600D03*
X107350600Y-60680600D03*
%TD*%
D10*
%TO.C,R3*%
X114538000Y-50292000D03*
X112538000Y-50292000D03*
%TD*%
D12*
%TO.C,D1*%
X89790600Y-59791600D03*
X86490600Y-59791600D03*
%TD*%
D11*
%TO.C,U3*%
X114696200Y-74777600D03*
X114696200Y-73507600D03*
X114696200Y-72237600D03*
X114696200Y-70967600D03*
X107396200Y-70967600D03*
X107396200Y-72237600D03*
X107396200Y-73507600D03*
X107396200Y-74777600D03*
%TD*%
D13*
%TO.C,R2*%
X117414800Y-92786200D03*
X119414800Y-92786200D03*
%TD*%
D11*
%TO.C,U3*%
X114698800Y-88849200D03*
X114698800Y-87579200D03*
X114698800Y-86309200D03*
X114698800Y-85039200D03*
X107398800Y-85039200D03*
X107398800Y-86309200D03*
X107398800Y-87579200D03*
X107398800Y-88849200D03*
%TD*%
D15*
%TO.C,U2*%
X74980800Y-84956200D03*
D16*
X74980800Y-87706200D03*
X74980800Y-89706200D03*
D15*
X74980800Y-92456200D03*
%TD*%
M02*
