M48
; DRILL file {KiCad 7.0.9} date Mon Dec 25 23:01:01 2023
; FORMAT={-:-/ absolute / inch / decimal}
; #@! TF.CreationDate,2023-12-25T23:01:01+05:45
; #@! TF.GenerationSoftware,Kicad,Pcbnew,7.0.9
; #@! TF.FileFunction,Plated,1,2,PTH
FMAT,2
INCH
; #@! TA.AperFunction,Plated,PTH,ViaDrill
T1C0.0157
; #@! TA.AperFunction,Plated,PTH,ComponentDrill
T2C0.0354
; #@! TA.AperFunction,Plated,PTH,ComponentDrill
T3C0.0402
%
G90
G05
T1
X3.33Y-1.75
X3.3301Y-2.304
X3.3319Y-2.859
X3.332Y-3.413
X3.38Y-2.05
X3.3801Y-2.604
X3.3819Y-3.159
X3.382Y-3.713
X3.77Y-1.94
X3.7701Y-2.494
X3.7719Y-3.049
X3.772Y-3.603
X4.31Y-1.74
X4.3101Y-2.294
X4.3119Y-2.849
X4.312Y-3.403
X4.36Y-1.98
X4.3601Y-2.534
X4.3619Y-3.089
X4.362Y-3.643
X4.62Y-1.91
X4.6201Y-2.464
X4.6219Y-3.019
X4.622Y-3.573
T2
X4.72Y-1.6798
X4.72Y-1.7798
X4.7201Y-2.2338
X4.7201Y-2.3338
X4.7219Y-2.7888
X4.7219Y-2.8888
X4.722Y-3.3428
X4.722Y-3.4428
T3
X3.71Y-1.76
X3.7101Y-2.314
X3.7119Y-2.869
X3.712Y-3.423
X3.81Y-1.76
X3.8101Y-2.314
X3.8119Y-2.869
X3.812Y-3.423
X3.91Y-1.76
X3.9101Y-2.314
X3.9119Y-2.869
X3.912Y-3.423
X4.01Y-1.76
X4.0101Y-2.314
X4.0119Y-2.869
X4.012Y-3.423
X4.99Y-1.7
X4.99Y-1.8
X4.99Y-1.9
X4.99Y-2.0
X4.9901Y-2.254
X4.9901Y-2.354
X4.9901Y-2.454
X4.9901Y-2.554
X4.9919Y-2.809
X4.9919Y-2.909
X4.9919Y-3.009
X4.9919Y-3.109
X4.992Y-3.363
X4.992Y-3.463
X4.992Y-3.563
X4.992Y-3.663
T0
M30
